<?xml version="1.0" standalone="no"?>
<!DOCTYPE svg PUBLIC "-//W3C//DTD SVG 1.1//EN" "http://www.w3.org/Graphics/SVG/1.1/DTD/svg11.dtd" >
<svg xmlns="http://www.w3.org/2000/svg">
<metadata>
This is a custom SVG webfont generated by Font Squirrel.
Copyright   : Copyright c 19901997 ParaGraph All Rights Reserved ITC Officina Serif is a registered trade mark of International Typeface Corporation
</metadata>
<defs>
<font id="OfficinaSerifCBook" horiz-adv-x="1024" >
<font-face units-per-em="2048" ascent="1638" descent="-410" />
<missing-glyph horiz-adv-x="477" />
<glyph unicode=" "  horiz-adv-x="477" />
<glyph unicode="&#x09;" horiz-adv-x="477" />
<glyph unicode="&#xa0;" horiz-adv-x="477" />
<glyph unicode="!" horiz-adv-x="681" d="M199 114.5q0 57.5 42 100.5t101 43t101 -43t42 -100.5t-42 -100.5t-101 -43t-101 43t-42 100.5zM233 1378q-2 25 27 25h156q29 0 26 -25l-45 -809q0 -27 -24 -26h-66q-25 0 -24 26z" />
<glyph unicode="&#x22;" horiz-adv-x="833" d="M182 1464q-2 18 25 19h119q27 0 24 -19l-33 -495q-2 -27 -24 -27h-53q-23 0 -25 27zM485 1464q-2 18 25 19h119q27 0 24 -19l-32 -495q-2 -27 -25 -27h-53q-23 0 -25 27z" />
<glyph unicode="#" d="M84 246v100q0 16 16 16h146l43 410h-144q-16 0 -16 16v101q0 16 16 16h156l43 412q2 12 4 20v2q4 6 21 7h92q10 0 14 -5v-24l-43 -412h250l43 412q2 12 4 20v2q4 6 21 7h92q10 0 14 -5v-24l-43 -412h121q16 0 16 -16v-101q0 -16 -16 -16h-133l-43 -410h131q16 0 16 -16 v-100q0 -16 -16 -17h-146l-36 -364q-2 -29 -25 -29h-80h-12q-4 0 -10.5 7t-4.5 22l37 364h-250l-36 -364q-2 -29 -25 -29h-80h-12q-4 0 -10 7t-4 22l36 364h-131q-16 1 -16 17zM377 362h250l43 410h-250z" />
<glyph unicode="$" d="M125 82v6q0 2 2 10l2 6l35 89q4 12 16 12h2l33 -17q137 -72 258 -79v514l-39 22q-133 80 -174 121q-102 100 -102 238q0 135 88 230t227 107v121q0 25 25 25h61q25 0 25 -25v-116q143 -8 258 -72q31 -16 20 -41l-37 -90q-10 -8 -14 -10h-6q-6 2 -31 14q-111 53 -190 61 v-465l30 -18q133 -78 172 -117q113 -109 113 -260q0 -139 -84 -241.5t-231 -126.5v-136q0 -25 -25 -24h-61q-25 0 -25 24v127q-152 6 -276 60q-70 26 -72 51zM326 1018q0 -78 34.5 -128t100.5 -95l12 -9v418q-66 -10 -106.5 -57t-40.5 -129zM584 117q70 16 108.5 71.5 t38.5 133.5q0 88 -43 154.5t-94 96.5l-10 7v-463z" />
<glyph unicode="%" horiz-adv-x="1554" d="M80 983q0 166 73.5 264.5t206.5 98.5q115 0 190 -82t75 -250q0 -170 -75 -268.5t-204 -98.5q-27 0 -53.5 4t-67.5 24.5t-70.5 53.5t-52 99.5t-22.5 154.5zM215 989q0 -231 131 -231q143 0 143 243q0 233 -131 234q-143 0 -143 -246zM485 -19.5q-4 9.5 4 23.5l408 1321 q8 20 31 21h86q37 0 22 -35l-409 -1319q-6 -20 -29 -21h-86q-23 0 -27 9.5zM932 307q0 166 73.5 264.5t206.5 98.5q115 0 190 -82t75 -250q0 -170 -75 -268.5t-204 -98.5q-27 0 -53.5 4.5t-67.5 24.5t-70.5 53t-52 99.5t-22.5 154.5zM1067 313q0 -231 131 -231 q143 0 143 244q0 233 -131 233q-143 0 -143 -246z" />
<glyph unicode="&#x26;" horiz-adv-x="1249" d="M117 340q0 154 102 266q23 25 44.5 43.5t56 42t47.5 31.5l20 14l-6 8q-6 8 -17.5 20.5t-25.5 30t-35 50.5q-92 137 -92 252q0 164 115 258q92 76 237 76q156 0 238 -85t82 -217q0 -143 -101 -253q-37 -43 -164 -136l-14 -10l338 -391q61 106 62 238v26q0 25 24 25h100 q25 0 25 -25v-12q0 -94 -33 -193.5t-86 -165.5l129 -149q12 -12 13 -21q0 -14 -13 -20l-78 -63l-18 -9h-6q-16 0 -29 15l-112 133l-17 -13q-61 -47 -98 -67q-123 -68 -273 -68q-207 0 -321 123q-94 99 -94 246zM285 352q0 -100 67.5 -171.5t202.5 -71.5q158 0 281 110 l-367 432l-12 -8q-172 -117 -172 -291zM367 1118q0 -92 79 -205q43 -61 70 -88l6 -6l8 6q117 90 154 148q43 70 43 147q0 92 -57 142q-47 43 -117 43q-76 0 -131 -51.5t-55 -135.5z" />
<glyph unicode="'" horiz-adv-x="342" d="M86 1464q-2 18 20 19h127q23 0 21 -19l-31 -495q-2 -27 -18 -27h-68q-16 0 -18 27z" />
<glyph unicode="(" horiz-adv-x="757" d="M170 502q0 348 164 669q100 197 190 283q31 29 41 29q8 0 19 -6l53 -33q14 -10 14 -23q0 -8 -20 -35q-43 -55 -90 -131q-203 -334 -203 -753.5t203 -753.5q47 -76 90 -131q20 -27 20 -35q0 -12 -14 -22l-53 -33q-10 -6 -19 -6q-10 0 -41 28q-100 94 -198 297 q-156 308 -156 656z" />
<glyph unicode=")" horiz-adv-x="757" d="M106 -418q0 8 21 35q43 55 90 131q203 334 203 754t-203 753q-47 76 -90 131q-20 27 -21 35q0 12 15 23l53 33q10 6 19 6q10 0 40 -29q90 -86 191 -283q164 -322 164 -669.5t-156 -655.5q-98 -203 -199 -297q-31 -29 -40 -28q-8 0 -19 6l-53 33q-15 10 -15 22z" />
<glyph unicode="*" d="M176 1112l4 16l27 84q6 23 24 17l230 -94l-19 249q0 18 21 19h98q20 0 21 -19l-19 -249l230 94q18 6 24 -17l27 -84l4 -16q0 -8 -14 -12l-242 -60l162 -190q12 -16 -11 -31l-71 -51q-18 -14 -29 2l-131 211l-131 -211q-6 -10 -16 -10q-4 0 -13 8l-71 51q-23 14 -11 31 l162 190l-242 60q-14 4 -14 12z" />
<glyph unicode="+" d="M45 471v98q0 25 25 25h366v364q0 25 25 25h98q25 0 25 -25v-364h368q25 0 25 -25v-98q0 -25 -25 -25h-368v-368q0 -25 -25 -25h-98q-25 0 -25 25v368h-366q-25 0 -25 25z" />
<glyph unicode="," horiz-adv-x="378" d="M-6 -215q0 6 4 18l121 408q8 23 31 22h169q23 0 23 -14q0 -4 -8 -20l-236 -432q-8 -14 -12 -17q-2 -2 -8 -2q-4 0 -17 4l-53 19q-14 4 -14 14z" />
<glyph unicode="-" horiz-adv-x="720" d="M104 471v104q0 25 25 25h463q25 0 24 -25v-104q0 -25 -24 -25h-463q-25 0 -25 25z" />
<glyph unicode="." horiz-adv-x="606" d="M160 114.5q0 57.5 43 100.5t100 43t100 -43t43 -100.5t-43 -100.5t-100 -43t-100 43t-43 100.5z" />
<glyph unicode="/" horiz-adv-x="907" d="M-51 -403l790 1863q8 23 35 23h82q25 0 25 -17q0 -4 -9 -20l-786 -1856q-8 -20 -33 -20h-80q-38 0 -24 27z" />
<glyph unicode="0" d="M92 649q0 207 44 353.5t115 216t137.5 98.5t135.5 29q80 0 144.5 -29t106.5 -72t73 -107.5t46 -123t24.5 -129t11.5 -116.5t2 -95q0 -203 -37 -347.5t-101.5 -218t-134 -105.5t-151.5 -32q-25 0 -51.5 3t-69.5 19.5t-81 42t-79 78t-69.5 121t-47 176t-18.5 238.5z M260 662q0 -547 252 -547q66 0 114 34.5t73.5 87t41 132.5t19.5 148.5t4 156.5q0 528 -244 528q-260 1 -260 -540z" />
<glyph unicode="1" d="M154 1044q0 4 12 17l366 256h105q25 0 25 -25v-1159h184q25 0 24 -24v-84q0 -25 -24 -25h-549q-25 0 -25 25v84q0 25 25 24h209v1002l-283 -164q-12 -8 -20 -8q-10 0 -15 10l-30 57q-4 8 -4 14z" />
<glyph unicode="2" d="M141 27l2 51q4 113 31 205t72 158.5t87 109.5t97 84q35 27 93.5 66.5t83 60t55 53.5t42 71t11.5 89q0 98 -50.5 162.5t-144.5 64.5q-66 0 -112 -28.5t-65 -59.5t-44 -86q-20 -45 -29 -47q-6 -2 -18 2l-90 27l-4 2q-4 0 -6 1t-4.5 5t-2.5 10q0 20 14.5 57t36 73t63.5 83 t113.5 76t159.5 29q143 0 247 -94.5t104 -276.5q0 -57 -13.5 -106.5t-28 -80t-51 -67.5t-59 -55.5t-77 -57.5t-79.5 -57q-117 -90 -177 -179t-76 -229h534q25 0 25 -24v-94q0 -25 -25 -25h-688q-27 0 -27 27z" />
<glyph unicode="3" d="M109 74l43 96q12 12 16 12l33 -14q106 -53 235 -53q135 0 204 70.5t69 187.5q0 252 -297 252h-74q-25 0 -25 24v88q0 25 25 25h74q127 0 195.5 68.5t68.5 175.5q0 94 -57.5 145t-143.5 51q-113 0 -207 -96q-27 -27 -39 -29h-4q-4 0 -10 6l-68 58q-12 12 -12 18 q0 10 17 29q133 158 331 158q147 0 247.5 -89.5t100.5 -242.5q0 -219 -210 -303q37 -10 73.5 -31t81.5 -58.5t73 -104t28 -150.5q0 -178 -118 -287t-321 -109q-164 0 -295 58q-44 22 -34 45z" />
<glyph unicode="4" d="M63 315v119l539 895q12 18 37 14l96 -16q25 -6 25 -18q0 -6 -8 -19l-527 -866h387l27 330q2 27 27 26h77q25 0 25 -24v-332h168q25 0 25 -25v-84q0 -25 -25 -24h-168v-295q0 -16 -5 -20.5t-18 -4.5h-108q-25 0 -25 25v295h-524q-25 -1 -25 24z" />
<glyph unicode="5" d="M147 47l23 92q0 14 18 15q2 0 37 -11q115 -29 183 -28q319 0 319 327q0 139 -61.5 199.5t-149.5 60.5q-55 0 -108.5 -24.5t-68.5 -37.5t-63 -54q-16 -14 -30 -11l-76 27q-14 6 -16 8q-4 6 -4 25l63 655q0 10 1 13.5t3 7.5t7 5t14 1h540q25 0 25 -25v-96v-9q0 -3 -2 -6 t-8.5 -5t-14.5 -2h-432l-45 -416l27 18q98 70 219 70q158 0 253 -115t95 -285q0 -82 -22.5 -158.5t-72.5 -151.5t-147.5 -120t-230.5 -45q-129 0 -240 33q-43 12 -35 43z" />
<glyph unicode="6" d="M127 535q0 328 115 540q53 100 134 165t149.5 85.5t136.5 20.5q100 0 165 -25q41 -16 31 -41l-31 -78q-6 -16 -20 -16q-8 0 -14 2q-68 20 -119 20q-115 0 -211 -86q-57 -51 -96 -127.5t-48.5 -115.5t-23.5 -111l-4 -20l4 -5q37 70 107.5 114t156.5 44q158 0 251 -128 t93 -327q0 -217 -113.5 -346t-283.5 -129q-379 1 -379 564zM295 428q0 -156 57.5 -234.5t155.5 -78.5q102 0 164.5 86t62.5 237q0 162 -62.5 241t-152.5 79q-88 0 -156.5 -72t-68.5 -258z" />
<glyph unicode="7" d="M139 1198v94q0 25 25 25h700q25 0 25 -25v-51l-473 -1239q-10 -23 -23 -20l-121 18q-16 0 -22 8q-4 4 4 27l442 1139h-532q-25 -1 -25 24z" />
<glyph unicode="8" horiz-adv-x="1032" d="M82 342q0 119 78 216t213 142q-35 14 -68 37t-74 62t-65.5 100.5t-24.5 134.5q0 133 98.5 222.5t276.5 89.5t276.5 -89.5t98.5 -222.5q0 -74 -24.5 -135t-65.5 -100t-74 -61.5t-68 -37.5q135 -45 213 -142t78 -216q0 -152 -116.5 -261.5t-317.5 -109.5t-317.5 109.5 t-116.5 261.5zM250 332q0 -86 66.5 -154.5t199.5 -68.5t199.5 68.5t66.5 154.5q0 59 -22.5 106t-66.5 81t-76.5 51.5t-81.5 39.5l-19 8l-18 -8q-49 -23 -82 -40t-77 -51t-66.5 -81t-22.5 -106zM307 1022q0 -154 201 -254l8 -4l8 4q201 100 201 254q0 78 -58.5 132t-150.5 54 t-150.5 -54t-58.5 -132z" />
<glyph unicode="9" d="M125 870q0 217 113.5 346.5t283.5 129.5q379 0 379 -564q0 -168 -37 -339t-112 -279q-135 -193 -365 -193q-51 0 -164 23q-27 8 -30 18q-2 8 0 21l8 82q0 18 18 18q10 0 37 -8q57 -16 113 -16q78 0 139 30.5t97 70.5t63.5 109.5t39 113.5t25.5 116l4 20l-4 4 q-37 -70 -107.5 -113.5t-156.5 -43.5q-158 0 -251 127.5t-93 326.5zM293 879q0 -164 62.5 -243t152.5 -79q88 0 156.5 72.5t68.5 259.5q0 156 -57.5 234.5t-155.5 78.5q-102 0 -164.5 -85.5t-62.5 -237.5z" />
<glyph unicode=":" horiz-adv-x="606" d="M160 114.5q0 57.5 43 100.5t100 43t100 -43t43 -100.5t-43 -100.5t-100 -43t-100 43t-43 100.5zM160 839.5q0 57.5 43 100.5t100 43t100 -43t43 -100.5t-43 -100.5t-100 -43t-100 43t-43 100.5z" />
<glyph unicode=";" horiz-adv-x="606" d="M106 -215q0 6 5 18l120 408q8 23 31 22h170q23 0 23 -14q0 -4 -9 -20l-235 -432q-8 -14 -12 -17q-2 -2 -9 -2q-4 0 -16 4l-53 19q-15 4 -15 14zM190 839.5q0 57.5 42 100.5t101.5 43t101.5 -43t42 -100q0 -59 -42 -101.5t-101.5 -42.5t-101.5 43t-42 100.5z" />
<glyph unicode="&#x3c;" d="M45 471v96q0 25 23 33l827 299q12 6 24.5 6t18.5 -20l33 -94l4 -17q0 -14 -19 -18l-659 -236v-4l659 -233q18 -6 19 -21l-2 -4q-2 -6 -2 -10l-33 -94q-6 -20 -18 -21q-6 0 -25 6l-827 299q-23 8 -23 33z" />
<glyph unicode="=" horiz-adv-x="1116" d="M137 330v98q0 25 25 25h882q25 0 25 -25v-98q0 -25 -25 -25h-882q-25 0 -25 25zM137 610v99q0 25 25 24h882q25 0 25 -24v-99q0 -25 -25 -24h-882q-25 -1 -25 24z" />
<glyph unicode="&#x3e;" d="M49 262q0 14 19 21l659 233v4l-659 236q-18 4 -19 18l4 17l33 94q6 20 18.5 20t24.5 -6l827 -299q23 -8 23 -33v-96q0 -25 -23 -33l-827 -299q-18 -6 -25 -6q-12 0 -18 21l-33 94q0 4 -2 10z" />
<glyph unicode="?" horiz-adv-x="872" d="M78 1343q0 8 43 31q115 57 272 58q162 0 254 -82q98 -90 98 -246q0 -162 -110 -254q-76 -66 -203 -94v-189q0 -25 -24 -24h-91q-25 0 -24 24v240q0 35 7 43t40 16q127 37 174 82q63 59 64 154q0 92 -54 141q-53 51 -147 51q-115 0 -225 -55q-2 0 -7.5 -3t-7.5 -3h-6 q-14 0 -18 14l-31 78q-4 12 -4 18zM223 114.5q0 57.5 42 100.5t101.5 43t101.5 -43t42 -100.5t-42 -100.5t-101.5 -43t-101.5 43t-42 100.5z" />
<glyph unicode="@" horiz-adv-x="1933" d="M137 369q0 414 285 697.5t692 283.5q305 0 491.5 -162t186.5 -443q0 -303 -193 -495q-150 -150 -311 -150q-106 0 -147 76q-27 49 -27 109h-4q-123 -182 -281 -183q-80 0 -128 59.5t-48 174.5q0 133 45 260t127 203q88 82 205 82q84 0 144 -68l12 -14l20 49q4 12 15 12 h98q14 0 10 -22l-100 -469q-6 -31 -6 -35v-19q4 -102 84 -102q119 0 223 127q129 162 129 401q0 225 -143.5 357.5t-395.5 132.5q-244 0 -438.5 -118t-298.5 -312.5t-104 -425.5q0 -281 159.5 -449t479.5 -168q295 0 583 136q12 6 23.5 12t17.5 9t12 3h9q10 -2 14 -16 l25 -60q4 -12 4 -22t-23.5 -25.5t-79.5 -38.5q-287 -117 -573 -116q-362 0 -577.5 190.5t-215.5 538.5zM801 342q0 -113 73 -113q66 0 143 77t105 218l35 168l-4 4q-66 66 -133 66q-106 0 -168 -164q-51 -145 -51 -256z" />
<glyph unicode="A" horiz-adv-x="1234" d="M20 25v84q0 25 25 24h100l381 1247q8 23 31 23h121q23 0 31 -23l378 -1247h103q25 0 24 -24v-84q0 -25 -24 -25h-414q-25 0 -24 25v84q0 25 24 24h127l-80 285h-420l-77 -285h131q25 0 24 -24v-84q0 -25 -24 -25h-412q-25 0 -25 25zM442 561h342l-122 453 q-39 141 -48 194h-4q-31 -152 -43 -194z" />
<glyph unicode="B" horiz-adv-x="1138" d="M82 25v84q0 25 24 24h130v1137h-130q-25 0 -24 24v84q0 25 24 25h512q369 0 369 -334q0 -227 -203 -334q115 -27 183.5 -116t68.5 -232q0 -162 -94 -266q-111 -121 -338 -121h-498q-24 0 -24 25zM403 143h183q141 0 209 78q57 66 57 172q0 127 -86 199q-70 55 -191 55 h-172v-504zM403 784h129q143 0 209 70q61 66 62 197q0 94 -45 149q-51 59 -183 60h-172v-476z" />
<glyph unicode="C" horiz-adv-x="985" d="M106 715q0 367 123 545q119 172 342 172q129 0 252 -70q70 -39 70 -72v-227q0 -25 -25 -25h-90q-25 0 -24 25v174l-13 8q-72 49 -178 49q-131 0 -198 -114q-74 -125 -74 -406q0 -360 76 -520q37 -78 99 -111.5t122 -33.5q68 0 157 47l19 10v176q0 25 24 25h91 q25 0 24 -25v-213q0 -20 -1 -27.5t-9 -16.5t-29 -24q-137 -90 -297 -90q-227 0 -346 195q-115 187 -115 549z" />
<glyph unicode="D" horiz-adv-x="1175" d="M82 25v84q0 25 24 24h130v1137h-130q-25 0 -24 24v84q0 25 24 25h465q184 0 297 -86q201 -154 201 -602q0 -424 -174 -590q-131 -125 -399 -125h-390q-24 0 -24 25zM403 143h127q119 0 196 52.5t118 173.5q41 125 41 331q0 270 -56 394q-47 102 -127.5 134t-185.5 32 h-113v-1117z" />
<glyph unicode="E" horiz-adv-x="985" d="M82 25v84q0 25 24 24h130v1137h-130q-25 0 -24 24v84q0 25 24 25h775q25 0 24 -25v-282q0 -25 -24 -25h-90q-25 0 -25 25v164h-363v-455h404q25 0 24 -25v-94q0 -25 -24 -24h-404v-519h377v183q0 25 25 24h90q25 0 25 -24v-301q0 -25 -25 -25h-789q-24 0 -24 25z" />
<glyph unicode="F" horiz-adv-x="948" d="M82 25v84q0 25 24 24h130v1137h-130q-25 0 -24 24v84q0 25 24 25h775q25 0 24 -25v-282q0 -25 -24 -25h-90q-25 0 -25 25v164h-363v-469h404q25 0 24 -25v-94q0 -25 -24 -25h-404v-514h152q25 0 25 -24v-84q0 -25 -25 -25h-449q-24 0 -24 25z" />
<glyph unicode="G" horiz-adv-x="1134" d="M106 715q0 344 123 530.5t369 186.5q158 0 309 -103q20 -12 21 -39v-227q0 -25 -25 -25h-90q-25 0 -25 25v174l-12 6q-102 51 -180 51q-135 0 -211 -106q-94 -135 -94 -453q0 -315 80 -475q78 -152 239 -151q102 0 181 38v431h-164q-25 0 -25 24v84q0 25 25 25h446 q25 0 25 -25v-84q0 -25 -25 -24h-115v-445q0 -53 -7 -66.5t-52 -35.5q-125 -59 -293 -60q-260 0 -385 207q-115 189 -115 537z" />
<glyph unicode="H" horiz-adv-x="1327" d="M80 25v84q0 25 24 24h129v1137h-129q-25 0 -24 24v84q0 25 24 25h426q25 0 25 -25v-84q0 -25 -25 -24h-129v-469h525v469h-129q-25 0 -25 24v84q0 25 25 25h426q25 0 24 -25v-84q0 -25 -24 -24h-129v-1137h129q25 0 24 -24v-84q0 -25 -24 -25h-426q-25 0 -25 25v84 q0 25 25 24h129v524h-525v-524h129q25 0 25 -24v-84q0 -25 -25 -25h-426q-24 0 -24 25z" />
<glyph unicode="I" horiz-adv-x="681" d="M47 25v84q0 25 25 24h186v1137h-186q-25 0 -25 24v84q0 25 25 25h540q25 0 25 -25v-84q0 -25 -25 -24h-186v-1137h186q25 0 25 -24v-84q0 -25 -25 -25h-540q-25 0 -25 25z" />
<glyph unicode="J" horiz-adv-x="909" d="M12 340v37q0 25 25 24h106q25 0 25 -24v-12q0 -125 49 -189q53 -68 157.5 -67.5t155.5 59.5q51 57 52 178v914h-359q-25 0 -24 24v94q0 25 24 25h502q25 0 25 -25v-1032q0 -168 -88 -266q-98 -109 -289 -109q-186 0 -279 117q-82 102 -82 252z" />
<glyph unicode="K" horiz-adv-x="1175" d="M80 25v84q0 25 24 24h129v1137h-129q-25 0 -24 24v84q0 25 24 25h426q25 0 25 -25v-84q0 -25 -25 -24h-129v-572h5l430 572h-101q-25 0 -24 24v84q0 25 24 25h375q25 0 25 -25v-84q0 -25 -25 -24h-92l-447 -574l451 -563h100q25 0 25 -24v-84q0 -25 -25 -25h-391 q-25 0 -24 25v84q0 25 24 24h98l-423 541h-5v-541h129q25 0 25 -24v-84q0 -25 -25 -25h-426q-24 0 -24 25z" />
<glyph unicode="L" horiz-adv-x="985" d="M82 25v84q0 25 24 24h130v1137h-130q-25 0 -24 24v84q0 25 24 25h426q25 0 25 -25v-84q0 -25 -25 -24h-129v-1127h369l72 201q8 23 33 14l94 -34q15 -6 14 -22q0 -6 -2 -13l-96 -266q-8 -23 -31 -23h-750q-24 0 -24 25z" />
<glyph unicode="M" horiz-adv-x="1449" d="M61 25v84q0 25 25 24h115l63 1137h-143q-25 0 -25 24v84q0 25 25 25h303q16 0 27 -21l241 -706q20 -61 31 -127h4q10 66 31 127l241 706q10 20 27 21h303q25 0 25 -25v-84q0 -25 -25 -24h-143l63 -1137h115q25 0 25 -24v-84q0 -25 -25 -25h-420q-25 0 -24 25v84 q0 25 24 24h143l-26 881v194h-4q-8 -94 -25 -145l-246 -713q-6 -23 -30 -22h-62q-25 0 -30 22l-246 713q-16 51 -25 145h-4v-194l-27 -881h144q25 0 24 -24v-84q0 -25 -24 -25h-420q-25 0 -25 25z" />
<glyph unicode="N" horiz-adv-x="1251" d="M72 25v84q0 25 24 24h129v1137h-129q-25 0 -24 24v84q0 25 24 25h287q23 0 31 -19l452 -954q18 -39 35 -104l14 -54l5 4q-4 23 -7.5 45.5t-5.5 35t-2 20.5v893h-133q-25 0 -24 24v84q0 25 24 25h414q25 0 24 -25v-84q0 -25 -24 -24h-131v-1245q0 -25 -25 -25h-112 q-25 0 -33 20l-471 1012q-31 63 -56 178l-4 -4q20 -115 21 -182v-891h133q25 0 24 -24v-84q0 -25 -24 -25h-412q-24 0 -24 25z" />
<glyph unicode="O" horiz-adv-x="1138" d="M106 702q0 61 3.5 112.5t15.5 147t43 169t79 146.5t131 114t191 41q63 0 121 -14.5t122.5 -62.5t111.5 -124t77.5 -212t30.5 -316.5t-30.5 -316.5t-77.5 -213t-113 -125t-122 -62.5t-120 -14.5q-66 0 -123 15.5t-121.5 62.5t-110.5 124t-77 213t-31 316zM291 702 q0 -272 37 -389q61 -205 241 -204q57 0 103.5 22.5t75 54t49 87t30 98.5t15.5 111.5t6 102.5v95v22q0 100 -4 170t-19.5 156t-44 139.5t-82 90t-129.5 36.5q-57 0 -103 -23.5t-75 -55t-49 -88t-29.5 -100.5t-14.5 -111.5t-6 -102.5t-1 -96v-15z" />
<glyph unicode="P" horiz-adv-x="1034" d="M82 25v84q0 25 24 24h130v1137h-130q-25 0 -24 24v84q0 25 24 25h508q182 0 279 -90q100 -92 100 -283q0 -225 -123 -336q-115 -102 -319 -102h-148v-459h152q25 0 25 -24v-84q0 -25 -25 -25h-449q-24 0 -24 25zM403 735h134q51 0 81.5 3t74.5 21.5t73 55.5q59 74 59 207 q0 127 -61 184q-57 53 -203 54h-158v-525z" />
<glyph unicode="Q" horiz-adv-x="1138" d="M106 698q0 180 32 317.5t79 214.5t113.5 124t125 62.5t124.5 15.5q104 0 185 -40t128 -112t76.5 -143.5t42 -167t15.5 -148.5t3 -119q0 -168 -26.5 -295.5t-49 -172t-59.5 -97.5l-4 -6q111 -94 194 -145q2 -2 11.5 -7.5t12.5 -7.5t7 -8t4 -12t-8 -14l-108 -74 q-8 -6 -19 -6q-16 0 -37 14q-70 43 -176 154q-98 -53 -201 -54q-465 0 -465 727zM291 707q0 -123 9 -214.5t35.5 -186.5t85 -146t146.5 -51q90 0 149.5 50t86 144t35 182t8.5 211q0 98 -5 173t-21.5 159t-45.5 138.5t-80 91t-123 36.5q-61 0 -109 -23.5t-78 -69.5t-49.5 -98 t-28.5 -124t-12 -133t-3 -139z" />
<glyph unicode="R" horiz-adv-x="1138" d="M82 25v84q0 25 24 24h130v1137h-130q-25 0 -24 24v84q0 25 24 25h498q113 0 193 -31t120.5 -86t58 -114.5t17.5 -129.5q0 -166 -96 -276q-72 -84 -174 -113l289 -520h100q25 0 25 -24v-84q0 -25 -25 -25h-201q-25 0 -37 23l-323 616h-148v-506h132q25 0 24 -24v-84 q0 -25 -24 -25h-429q-24 0 -24 25zM403 772h134q160 0 225 66q63 63 63 174q0 135 -61 192q-61 55 -209 56h-152v-488z" />
<glyph unicode="S" horiz-adv-x="983" d="M86 109v237q0 25 25 25h90q25 0 24 -25v-168l11 -4q135 -55 237 -55q123 0 183.5 69.5t60.5 163.5q0 72 -35 127.5t-73 83t-109 68.5q-178 102 -217 131q-164 121 -164 303q0 172 131 276q117 90 276 91q172 0 295 -70q27 -14 34 -24.5t7 -37.5v-225q0 -25 -24 -24h-90 q-25 0 -25 24v166l-14 6q-74 37 -189 37q-100 0 -158.5 -55t-58.5 -146q0 -121 123 -204q37 -25 105.5 -61t91.5 -48q279 -158 278 -397q0 -164 -112.5 -283t-321.5 -119q-94 0 -201.5 30t-159.5 60q-20 13 -20 48z" />
<glyph unicode="T" horiz-adv-x="983" d="M51 1028v350q0 25 25 25h831q25 0 25 -25v-350q0 -25 -23 -24h-94h-9q-3 0 -6 2t-5 8t-2 14v232h-218v-1127h146q25 0 24 -24v-84q0 -25 -24 -25h-459q-25 0 -24 25v84q0 25 24 24h146v1127h-218v-232q0 -25 -24 -24h-90q-25 -1 -25 24z" />
<glyph unicode="U" horiz-adv-x="1288" d="M51 1294v84q0 25 25 25h430q25 0 24 -25v-84q0 -25 -24 -24h-131v-889q0 -133 51 -199q59 -74 207 -73q143 0 217 75q63 66 63 197v889h-131q-25 0 -24 24v84q0 25 24 25h430q25 0 25 -25v-84q0 -25 -25 -24h-131v-893q0 -184 -98 -285q-119 -121 -348 -121 q-238 0 -342 121q-86 98 -86 285v893h-131q-25 -1 -25 24z" />
<glyph unicode="V" horiz-adv-x="1089" d="M2 1294v84q0 25 25 25h383q25 0 24 -25v-84q0 -25 -24 -24h-121l227 -955q16 -74 29 -163h4q12 84 31 159l235 959h-110q-25 0 -25 24v86v10q0 3 2 6t8 5t15 2h358q25 0 24 -25v-84q0 -25 -24 -24h-76l-338 -1247q-6 -23 -31 -23h-143q-25 0 -31 23l-333 1247h-84 q-25 -1 -25 24z" />
<glyph unicode="W" horiz-adv-x="1533" d="M20 1294v84q0 25 25 25h383q25 0 25 -25v-84q0 -25 -25 -24h-131l156 -887q6 -31 12 -145l4 -74h4l4 61q8 115 21 170l196 983q4 18 8.5 21.5t16.5 3.5h119h2q6 0 9 -1t7 -6t6 -18l170 -1011q16 -90 19 -164l2 -47h4l2 67q0 84 12 146l166 901h-127q-25 0 -25 24v84 q0 25 25 25h379q25 0 24 -25v-84q0 -25 -24 -24h-88l-262 -1247q-4 -23 -21 -23h-153q-10 0 -14.5 4t-6.5 21l-172 1118h-4l-213 -1118q-12 -23 -20 -25h-146q-12 0 -14 4t-6 21l-238 1245h-86q-25 -1 -25 24z" />
<glyph unicode="X" horiz-adv-x="1138" d="M27 25v84q0 25 24 24h96l324 598l-295 539h-94q-25 0 -25 24v84q0 25 25 25h393q25 0 25 -25v-84q0 -25 -25 -24h-115l160 -293l51 -107q14 39 54 115l151 285h-96q-25 0 -25 24v84q0 25 25 25h371q25 0 24 -25v-84q0 -25 -24 -24h-93l-299 -533l334 -604h94q25 0 25 -24 v-84q0 -25 -25 -25h-393q-25 0 -24 25v84q0 25 24 24h111l-195 367q-10 18 -43 96l-41 -94l-194 -369h108q25 0 25 -24v-84q0 -25 -25 -25h-389q-24 0 -24 25z" />
<glyph unicode="Y" horiz-adv-x="1107" d="M10 1294v84q0 25 25 25h393q25 0 25 -25v-84q0 -25 -25 -24h-121l203 -414q6 -14 22 -43q4 -8 11.5 -23.5t11.5 -23.5l4 -8l4 -8l47 106l195 414h-125q-25 0 -25 24v84q0 25 25 25h393q25 0 25 -25v-84q0 -25 -25 -24h-86l-348 -674v-463h143q25 0 25 -24v-84 q0 -25 -25 -25h-454q-25 0 -25 25v84q0 25 25 24h143v459l-360 678h-76q-25 -1 -25 24z" />
<glyph unicode="Z" horiz-adv-x="985" d="M86 25v110l602 1125h-412v-154q0 -25 -24 -25h-90q-25 0 -25 25v272q0 25 25 25h698q25 0 25 -25v-102l-606 -1133h491l59 168q8 23 41 11l86 -31q16 -6 17 -19q0 -8 -6 -22l-82 -225q-8 -25 -33 -25h-741q-25 0 -25 25z" />
<glyph unicode="[" horiz-adv-x="757" d="M238 -389v1833q0 25 26 24h359q25 0 24 -24v-78q0 -25 -24 -25h-230v-1628h230q25 0 24 -24v-78q0 -25 -24 -25h-361q-24 0 -24 25z" />
<glyph unicode="\" horiz-adv-x="1021" d="M119 1466q0 16 22 17h82q27 0 35 -23l791 -1855q6 -18 6 -21q0 -14 -25 -14h-82q-25 0 -33 20l-790 1856q-6 18 -6 20z" />
<glyph unicode="]" horiz-adv-x="757" d="M113 -311q0 25 24 24h230v1628h-230q-25 0 -24 25v78q0 25 24 24h359q27 0 26 -24v-1833q0 -25 -24 -25h-361q-25 0 -24 25v78z" />
<glyph unicode="^" d="M127 707q0 4 10 26l293 653q8 16 27 17h112q18 0 27 -17l293 -653q10 -23 10 -26q0 -10 -20 -17l-99 -28q-23 -8 -30 12l-238 528l-236 -528q-4 -14 -20 -15q-6 0 -10 3l-99 28q-20 7 -20 17z" />
<glyph unicode="_" d="M0 -154h1024v-102h-1024v102z" />
<glyph unicode="`" horiz-adv-x="630" d="M104 1327q0 2 9 19l59 88q10 16 21 16q4 0 20 -10l305 -236q8 -4 8 -14q0 -6 -8 -16l-26 -39q-8 -8 -14.5 -8.5t-14.5 3.5l-340 177q-19 12 -19 20z" />
<glyph unicode="a" horiz-adv-x="948" d="M82 260q0 127 78 215q111 123 415 139l43 2v74q0 39 -5 66.5t-21.5 57.5t-54 45t-93.5 15q-115 0 -227 -53l-29 -12q-12 0 -16 10l-31 82q-2 4 -2 17q0 16 45 34l29 13q106 47 238 47q150 0 221 -51q102 -72 102 -236v-393q0 -139 25 -205h96q25 0 25 -25v-77 q0 -25 -25 -25h-174q-29 0 -43 22.5t-29 67.5l-6 19l-8 -9q-129 -129 -287 -129q-119 0 -192.5 78t-73.5 211zM238 272q0 -90 45 -132t102 -42q106 0 221 115l12 12v264h-8q-190 0 -280 -55q-92 -56 -92 -162z" />
<glyph unicode="b" horiz-adv-x="1021" d="M14 1366v78q0 25 25 24h264q25 0 25 -24v-537l18 15q119 90 242 90q332 0 332 -480q0 -260 -82 -403q-90 -158 -291 -158q-152 0 -262 101l-4 -11q-37 -90 -64 -90q-6 0 -24 13l-68 45q-16 12 -16 18v2q0 4 4 8l4 6l6 9q49 66 49 178v1091h-133q-25 0 -25 25zM328 186 q111 -78 211 -77q131 0 178 139q35 104 35 293q0 176 -37 245q-45 88 -156 88q-80 0 -192 -75l-39 -27v-586z" />
<glyph unicode="c" horiz-adv-x="884" d="M102 461q0 258 121 411q113 139 287 140q55 0 132 -18.5t124 -49.5l16 -10q20 -12 21 -33v-184q0 -25 -25 -25h-84q-25 0 -24 25v119q-74 39 -150 38q-59 0 -104 -19t-72 -57t-43 -74t-22.5 -87t-7.5 -78t-1 -67q0 -57 3 -101.5t17.5 -101t38 -93t69.5 -62t108 -25.5 q109 0 229 73q20 10 23 11q6 0 10 -9l39 -96q1 -3 1 -6q0 -14 -26 -31q-45 -29 -130 -54.5t-169 -25.5q-184 0 -286 144q-95 133 -95 346z" />
<glyph unicode="d" horiz-adv-x="1060" d="M102 471q0 297 121 436q90 104 248 105q137 0 234 -70v399h-132q-25 0 -24 25v78q0 25 24 24h263q25 0 24 -24v-1188q0 -70 8 -111l4 -18h117q25 0 25 -25v-77q0 -25 -25 -25h-184q-10 0 -19.5 4t-15.5 9t-11 14.5t-7 14.5t-6.5 16.5t-4.5 13.5l-8 20 q-139 -121 -289 -121q-172 0 -258 138q-84 133 -84 362zM270 475q0 -211 37 -278q47 -88 150 -88q123 0 248 120v578q-104 68 -224 67q-113 0 -164 -81q-47 -78 -47 -318z" />
<glyph unicode="e" horiz-adv-x="960" d="M96 492q0 250 127 395q111 125 281 125q162 0 254 -101q117 -123 116 -407v-10q0 -35 -22 -35h-588v-10q0 -119 51 -209q39 -68 103.5 -99.5t128.5 -31.5q100 0 225 71q16 8 25 10h4q8 0 10 -10l37 -92q2 -4 2 -12q0 -14 -76 -51q-119 -53 -231 -54q-219 0 -340 156 q-107 140 -107 365zM264 586h443q0 96 -33 174q-51 125 -182 125q-129 0 -189 -121q-39 -82 -39 -178z" />
<glyph unicode="f" horiz-adv-x="681" d="M72 881v77q0 25 24 25h133v160q0 170 68 252q72 88 209 88q129 0 209 -45q22 -14 22 -30q0 -4 -2 -9l-35 -84q-8 -14 -18 -15q-6 0 -27 11q-76 35 -141 35q-68 0 -98.5 -37t-30.5 -129v-197h295q31 0 20 -29l-26 -80q-4 -18 -27 -18h-262v-729h143q25 0 25 -25v-77 q0 -25 -25 -25h-413q-25 0 -25 25v77q0 25 25 25h114v729h-133q-24 0 -24 25z" />
<glyph unicode="g" horiz-adv-x="1019" d="M102 479q0 147 37 256t82 160t109.5 80t95.5 33t61 4q123 0 232 -76l14 -10q12 39 32 67q13 19 27 19q7 0 15 -4l92 -58q8 -4 8 -12v-4q0 -6 -10 -21q-53 -90 -53 -176v-342l14 -465v-13q0 -156 -91 -250q-95 -97 -267 -97q-164 0 -295 68l-21 10q-31 16 -30 37q0 2 6 14 l35 76q4 12 14 12q2 0 39 -16q139 -63 252 -64q203 0 203 205q0 8 -1 16l-6 211q-125 -113 -268 -112q-131 0 -228.5 105t-97.5 347zM270 518q0 -68 4.5 -112t18.5 -108.5t54 -99t102 -34.5q102 0 225 92l14 10v553l-12 6q-109 49 -176 49q-230 0 -230 -356z" />
<glyph unicode="h" horiz-adv-x="1132" d="M72 1366v78q0 25 24 24h254q25 0 25 -24v-565q152 133 323 133q131 0 189 -78q51 -68 51 -229v-578h115q25 0 24 -25v-77q0 -25 -24 -25h-246q-25 0 -25 25v684q0 80 -26 116q-35 49 -111 49q-61 0 -140 -36.5t-130 -87.5v-623h114q25 0 25 -25v-77q0 -25 -25 -25h-387 q-25 0 -24 25v77q0 25 24 25h117v1214h-123q-24 0 -24 25z" />
<glyph unicode="i" horiz-adv-x="569" d="M31 881v77q0 25 24 25h291q27 0 27 -31v-825h145q25 0 25 -25v-77q0 -25 -25 -25h-448q-25 0 -25 25v77q0 25 25 25h147v729h-162q-24 0 -24 25zM158 1343.5q0 51.5 36.5 88t88 36.5t88.5 -36.5t37 -88t-37 -88t-88.5 -36.5t-88 36.5t-36.5 88z" />
<glyph unicode="j" horiz-adv-x="559" d="M-156 -350q0 4 4 16l39 86q6 10 15 10h2q8 0 22 -8q94 -47 170 -47q27 0 47.5 4t35 14.5t25.5 17.5t17 27.5t10.5 27.5t6.5 34t2 32v34v30v928h-162q-25 0 -25 25v77q0 25 25 25h293q25 0 24 -25v-1067q0 -35 -3 -66.5t-20.5 -81.5t-46 -85t-88 -61.5t-141.5 -26.5 q-111 0 -219 51q-33 17 -33 29zM180 1343.5q0 51.5 37 88t88 36.5t88 -36.5t37 -88t-37 -88t-88 -36.5t-88 36.5t-37 88z" />
<glyph unicode="k" horiz-adv-x="1077" d="M72 1366v78q0 25 24 24h250q29 0 29 -26v-910l315 324h-92q-25 0 -25 25v77q0 25 25 25h389q25 0 25 -25v-77q0 -25 -25 -25h-104l-332 -324l356 -405h107h9q3 0 6 -2t5 -8t2 -15v-77q0 -16 -5 -20.5t-17 -4.5h-191q-20 0 -35 16l-413 488v-377h114q25 0 25 -25v-77 q0 -25 -25 -25h-387q-25 0 -24 25v77q0 25 24 25h117v1214h-123q-24 0 -24 25z" />
<glyph unicode="l" horiz-adv-x="569" d="M20 1366v78q0 25 25 24h254q25 0 25 -24v-1153q0 -131 20 -156q20 -27 68 -26q27 0 82 18q20 8 24 8q8 0 14 -12l27 -86q2 -6 2 -11q0 -16 -20 -24q-66 -31 -154 -31q-143 0 -190 99q-29 59 -29 176v1095h-123q-25 0 -25 25z" />
<glyph unicode="m" horiz-adv-x="1546" d="M72 881v77q0 25 24 25h197q20 0 31.5 -14.5t27.5 -63.5l4 -12q162 119 287 119q127 0 188 -109l9 -14q145 123 293 123q100 0 159 -64q29 -31 44.5 -76t17.5 -76.5t2 -90.5v-578h114q25 0 25 -25v-77q0 -25 -25 -25h-245q-25 0 -25 25v684q0 166 -133 165q-88 0 -180 -69 l-19 -14v-664h115q25 0 25 -25v-77q0 -25 -25 -25h-246q-25 0 -24 25v684q0 166 -135 165q-94 0 -197 -83v-664h117q25 0 24 -25v-77q0 -25 -24 -25h-389q-25 0 -25 25v77q0 25 25 25h116v600q0 72 -8 111l-4 18h-117q-24 0 -24 25z" />
<glyph unicode="n" horiz-adv-x="1128" d="M72 881v77q0 25 24 25h205q16 0 29 -18q16 -25 30 -74l5 -19l18 15q160 125 317 125q125 0 189 -84q49 -66 49 -223v-578h115q25 0 24 -25v-77q0 -25 -24 -25h-246q-25 0 -25 25v684q0 82 -30 120q-37 45 -107 45q-123 0 -248 -110l-16 -14v-623h117q25 0 24 -25v-77 q0 -25 -24 -25h-389q-25 0 -25 25v77q0 25 25 25h116v600q0 72 -8 111l-4 18h-117q-24 0 -24 25z" />
<glyph unicode="o" horiz-adv-x="1019" d="M102 487q0 268 118 396.5t298 128.5q172 0 286 -123t114 -391q0 -270 -119 -398.5t-301 -128.5q-166 0 -281 123t-115 393zM270 506q0 -408 242 -408q238 0 238 402q0 385 -240 385t-240 -379z" />
<glyph unicode="p" horiz-adv-x="1052" d="M57 881v77q0 25 25 25h184q10 0 19.5 -4t15.5 -9t11 -14.5t7.5 -14.5t6.5 -16.5t4 -13.5l8 -20l10 8q139 113 277 113q170 0 252 -135q74 -121 73 -365q0 -158 -32.5 -270.5t-88 -168t-109.5 -79t-112 -23.5q-119 0 -233 84l-8 6v-348h131q25 0 24 -24v-78q0 -25 -24 -25 h-404q-25 0 -24 25v78q0 25 24 24h117v1014q0 70 -8 111l-4 18h-117q-25 0 -25 25zM367 197q123 -88 213 -88q119 0 163 100q39 82 39 299q0 182 -30 258q-45 109 -150 108q-88 0 -223 -92l-12 -8v-577z" />
<glyph unicode="q" horiz-adv-x="1021" d="M102 512q0 252 127 391q100 109 250 109q147 0 264 -99l5 13q12 41 43 75q12 14 30 5l76 -43q16 -10 16 -19q0 -2 -10 -26q-45 -102 -45 -185v-1020h115q25 0 24 -24v-78q0 -25 -24 -25h-402q-25 0 -24 25v78q0 25 24 24h131v379q-133 -121 -264 -121q-160 0 -248 143.5 t-88 397.5zM270 508q0 -199 45 -295q51 -104 152 -104q111 0 235 118v568l-10 6q-123 74 -205 73q-113 0 -168 -104q-49 -94 -49 -262z" />
<glyph unicode="r" horiz-adv-x="722" d="M72 881v77q0 25 24 25h185q23 0 45 -37t34 -96l2 -10l29 32q59 70 101 99q61 41 124 41q35 0 74 -17q16 -8 16 -20q0 -4 -1 -8l-50 -113q-4 -12 -12 -12l-4 2q-4 0 -6 2q-33 14 -49 14q-66 0 -166 -121l-33 -39v-573h129q25 0 25 -25v-77q0 -25 -25 -25h-399 q-25 0 -25 25v77q0 25 25 25h114v600q0 43 -22 129h-111q-24 0 -24 25z" />
<glyph unicode="s" horiz-adv-x="796" d="M86 74v188q0 25 25 25h84q25 0 24 -25v-119l17 -6l12 -4q12 -4 28 -8l37 -9q20 -5 45 -8.5t45 -3.5q86 0 126 43t40 105q0 66 -57 110q-31 23 -88 52l-117 55q-98 49 -145 108.5t-47 149.5q0 121 86 205q84 80 219 80q123 0 246 -62q23 -12 22 -32v-179q0 -25 -24 -24 h-84q-25 0 -25 24v113l-12 4q-80 23 -127 23q-74 0 -110 -39t-36 -97q0 -51 21 -77q27 -43 178 -115q166 -74 213 -143q43 -63 43 -146q0 -127 -90 -209t-238 -82q-129 0 -254 56q-57 24 -57 47z" />
<glyph unicode="t" horiz-adv-x="757" d="M39 881v77q0 25 24 25h144v281q0 18 22 24l109 31q9 3 14.5 3t6.5 -3q3 -6 3 -21v-315h304q31 0 20 -29l-27 -80q-6 -18 -26 -18h-271v-598q0 -66 21 -102q29 -47 102 -47q66 0 162 43q31 12 35 12q8 0 14 -12l25 -80q1 -4 1 -9q0 -25 -44 -43q-121 -49 -223 -49 q-123 0 -189 72q-59 66 -59 231v582h-144q-24 0 -24 25z" />
<glyph unicode="u" horiz-adv-x="1099" d="M53 881v77q0 25 25 25h246q25 0 24 -25v-684q0 -88 45 -126.5t113 -38.5q104 0 221 88l23 16v643h-117q-25 0 -25 25v77q0 25 25 25h248q25 0 24 -25v-702q0 -74 8 -111l5 -18h116q25 0 25 -25v-77q0 -25 -25 -25h-172q-27 0 -41 13.5t-35 56.5l-10 22 q-137 -121 -301 -121q-145 0 -217 76q-66 70 -65 232v577h-115q-25 0 -25 25z" />
<glyph unicode="v" horiz-adv-x="970" d="M10 881v77q0 25 25 25h346q25 0 25 -25v-69q0 -25 -25 -25h-113l181 -549q23 -70 36 -129h4q16 72 37 127l199 551h-121q-25 0 -24 25v69q0 25 24 25h340q25 0 25 -25v-77q0 -25 -25 -25h-59l-338 -866q-14 -16 -25 -19h-82q-18 0 -22 15q-2 2 -2 4l-314 866h-67 q-25 0 -25 25z" />
<glyph unicode="w" horiz-adv-x="1366" d="M33 881v77q0 25 24 25h357q25 0 24 -25v-69q0 -25 -24 -25h-133l116 -559l21 -112h4q6 43 22 112l195 658q6 20 29 20h73q25 0 29 -20l168 -684q10 -37 14 -80h4q4 49 13 80l145 585h-108q-25 0 -25 25v69q0 25 25 25h331q25 0 25 -25v-77q0 -25 -25 -25h-80l-243 -864 q0 -20 -25 -21h-80q-16 0 -20 5.5t-6 15.5l-162 635q-18 74 -23 161h-4q-10 -88 -30 -159l-193 -637q-6 -20 -22 -21h-82q-18 0 -23 21l-211 864h-76q-24 0 -24 25z" />
<glyph unicode="x" d="M51 25v77q0 25 25 25h76l286 375l-250 354h-92q-25 0 -24 25v77q0 25 24 25h342q25 0 25 -25v-69q0 -25 -25 -25h-78l97 -147l61 -99l27 41l141 205h-78q-25 0 -24 25v69q0 25 24 25h318q25 0 24 -25v-77q0 -25 -24 -25h-72l-254 -338l274 -391h76q25 0 25 -25v-77 q0 -25 -25 -25h-327q-25 0 -25 25v69q0 25 25 25h73l-125 190q-39 57 -53 86l-49 -76l-141 -200h94q25 0 24 -25v-69q0 -25 -24 -25h-346q-25 0 -25 25z" />
<glyph unicode="y" d="M14 881v77q0 25 25 25h375q25 0 24 -25v-71v-9q0 -3 -2 -6.5t-8 -5.5t-14 -2h-131l223 -657q20 -61 39 -139l2 -9h4q6 47 31 144l172 661h-121q-25 0 -25 25v69q0 25 25 25h356q25 0 25 -25v-77q0 -25 -25 -25h-76l-211 -729q-68 -231 -106.5 -331.5t-83.5 -145.5 q-76 -80 -197 -80q-96 0 -206 59q-37 20 -44.5 33.5t1.5 22.5l40 82q4 10 15 10q6 0 35 -21q90 -59 159 -59q55 0 95 45q33 37 63 129l43 129h-74q-18 0 -26 18l-295 838h-82q-25 0 -25 25z" />
<glyph unicode="z" horiz-adv-x="913" d="M96 25v81l514 744h-338v-139q0 -25 -24 -25h-86q-25 0 -25 25v247q0 25 25 25h618q12 0 17.5 -3t6.5 -6t1 -11v-5v-84l-510 -741h383l63 158q8 23 37 12l82 -33q14 -5 14 -20q0 -7 -4 -17l-86 -215q-8 -18 -26 -18h-637q-25 0 -25 25z" />
<glyph unicode="{" horiz-adv-x="872" d="M129 504v78q0 25 25 24h43q82 0 120 27q61 43 62 155v365q0 168 92 246q82 70 248 69h45q25 0 24 -24v-78q0 -25 -24 -25h-39q-106 0 -147 -41q-43 -41 -43 -145v-364q0 -193 -148 -246q49 -20 81 -49t45 -65t17.5 -65.5t4.5 -70.5v-399q0 -100 43 -142q45 -41 135 -41 h51q25 0 24 -24v-78q0 -25 -24 -25h-45q-186 0 -270 88q-70 74 -70 224v399q0 109 -60 154q-39 29 -120 28h-45q-25 0 -25 25z" />
<glyph unicode="|" horiz-adv-x="622" d="M238 -487v1998q0 25 24 25h98q25 0 25 -25v-1998q0 -25 -25 -25h-98q-24 0 -24 25z" />
<glyph unicode="}" horiz-adv-x="872" d="M84 -311q0 25 25 24h51q90 0 135 41q43 41 43 142v399q0 41 4 70.5t17.5 65.5t45 64.5t80.5 49.5q-147 53 -147 246v364q0 104 -43 145q-41 41 -148 41h-38q-25 0 -25 25v78q0 25 25 24h45q166 0 247 -69q92 -78 93 -246v-365q0 -113 61 -155q39 -27 121 -27h43 q25 0 24 -24v-78q0 -25 -24 -25h-45q-82 0 -121 -28q-59 -45 -59 -154v-399q0 -150 -70 -224q-84 -88 -270 -88h-45q-25 0 -25 25v78z" />
<glyph unicode="~" horiz-adv-x="960" d="M12 457q0 10 17 37q111 170 268 170q88 0 209 -68q96 -55 131 -59q14 -2 31 -2q96 0 163 96q20 29 46 12l57 -35q2 0 6 -2t6 -5t2 -7q0 -12 -14 -33q-53 -82 -112.5 -128t-157.5 -46q-88 0 -187 57q-115 70 -178 70q-106 0 -172 -98q-16 -27 -43 -10l-57 34 q-15 11 -15 17z" />
<glyph unicode="&#xa9;" horiz-adv-x="1007" d="M82 944q0 174 124 298t298 124t298 -124t124 -298t-124 -298t-298 -124t-298 124t-124 298zM172 944q0 -137 97.5 -234.5t234.5 -97.5t234.5 97.5t97.5 234.5t-97.5 234.5t-234.5 97.5t-234.5 -97.5t-97.5 -234.5zM344 952q0 76 25 140q41 98 149 98q66 0 115 -31 q20 -12 12 -29l-18 -30q-6 -12 -13 -13q-4 0 -20 9q-41 20 -72 20q-55 0 -65 -67q-6 -37 -6 -86q0 -98 20.5 -137.5t65.5 -39.5q39 0 73 27q12 8 21 -6l20 -37q8 -12 -4 -18q-49 -39 -119 -39q-100 0 -147 80q-37 61 -37 159z" />
<glyph unicode="&#xab;" horiz-adv-x="983" d="M45 489.5q0 10.5 10 20.5l344 432q16 16 23 16q2 0 10 -4l68 -39q12 -6 12 -16q0 -2 -6 -14l-266 -396l266 -395q6 -12 6 -14q0 -10 -12 -17l-68 -38l-10 -5q-6 0 -23 17l-344 432q-10 10 -10 20.5zM424 489.5q0 10.5 10 20.5l344 432q16 16 23 16q2 0 10 -4l68 -39 q12 -6 12 -16q0 -2 -6 -14l-267 -396l267 -395q6 -12 6 -14q0 -10 -12 -17l-68 -38l-10 -5q-6 0 -23 17l-344 432q-10 10 -10 20.5z" />
<glyph unicode="&#xad;" horiz-adv-x="720" d="M104 471v104q0 25 25 25h463q25 0 24 -25v-104q0 -25 -24 -25h-463q-25 0 -25 25z" />
<glyph unicode="&#xae;" horiz-adv-x="1007" d="M82 944q0 174 124 298t298 124t298 -124t124 -298t-124 -298t-298 -124t-298 124t-124 298zM172 944q0 -137 97.5 -234.5t234.5 -97.5t234.5 97.5t97.5 234.5t-97.5 234.5t-234.5 97.5t-234.5 -97.5t-97.5 -234.5zM365 739v420q0 20 20 21h141q57 0 96.5 -34t39.5 -95 q0 -74 -78 -121l108 -178q16 -27 -6 -31l-55 -6q-18 -2 -31 18l-108 187h-37v-181q0 -20 -21 -20h-49q-20 0 -20 20zM455 985h47q70 0 69 70q0 59 -69 59h-47v-129z" />
<glyph unicode="&#xb0;" d="M195 1087.5q0 131.5 93 223.5t224 92q129 0 222 -92t93 -223.5t-93 -223.5t-222 -92q-131 0 -224 92t-93 223.5zM324 1087.5q0 -77.5 54 -132t132 -54.5t133 54.5t55 132t-55 132t-133 54.5t-132 -54.5t-54 -132z" />
<glyph unicode="&#xbb;" horiz-adv-x="983" d="M90 80q0 2 6 14l266 395l-266 396q-6 12 -6 14q0 10 12 16l68 39q8 4 10 4q6 0 23 -16l344 -432q10 -10 10 -20.5t-10 -20.5l-344 -432q-16 -16 -23 -17q-2 0 -10 5l-68 38q-12 7 -12 17zM469 80q0 2 6 14l266 395l-266 396q-6 12 -6 14q0 10 12 16l68 39q8 4 10 4 q6 0 23 -16l344 -432q10 -10 10 -20.5t-10 -20.5l-344 -432q-16 -16 -23 -17q-2 0 -10 5l-68 38q-12 7 -12 17z" />
<glyph unicode="&#x2c6;" d="M127 707q0 4 10 26l293 653q8 16 27 17h112q18 0 27 -17l293 -653q10 -23 10 -26q0 -10 -20 -17l-99 -28q-23 -8 -30 12l-238 528l-236 -528q-4 -14 -20 -15q-6 0 -10 3l-99 28q-20 7 -20 17z" />
<glyph unicode="&#x2da;" horiz-adv-x="477" d="M-317 438.5q0 131.5 93 223.5t224 92q129 0 222 -92t93 -223.5t-93 -223.5t-222 -92q-131 0 -224 92t-93 223.5zM-188 438.5q0 -77.5 54 -132t132 -54.5t133 54.5t55 132t-55 132t-133 54.5t-132 -54.5t-54 -132z" />
<glyph unicode="&#x2dc;" horiz-adv-x="477" d="M-467 193q0 10 17 37q111 170 268 170q88 0 209 -68q96 -55 131 -59q14 -2 31 -2q96 0 163 96q20 29 46 12l57 -35q2 0 6 -2t6 -5t2 -7q0 -12 -14 -33q-53 -82 -112.5 -128t-157.5 -46q-88 0 -187 57q-115 70 -178 70q-106 0 -172 -98q-16 -27 -43 -10l-57 34 q-15 11 -15 17z" />
<glyph unicode="&#x400;" horiz-adv-x="985" d="M120 1755q0 2 9 19l59 88q10 16 21 16q4 0 20 -10l305 -236q8 -4 8 -14q0 -6 -8 -16l-26 -39q-8 -8 -14.5 -8.5t-14.5 3.5l-340 177q-19 12 -19 20zM82 25v84q0 25 24 24h130v1137h-130q-25 0 -24 24v84q0 25 24 25h775q25 0 24 -25v-282q0 -25 -24 -25h-90q-25 0 -25 25 v164h-363v-455h404q25 0 24 -25v-94q0 -25 -24 -24h-404v-519h377v183q0 25 25 24h90q25 0 25 -24v-301q0 -25 -25 -25h-789q-24 0 -24 25z" />
<glyph unicode="&#x401;" horiz-adv-x="985" d="M82 25v84q0 25 24 24h130v1137h-130q-25 0 -24 24v84q0 25 24 25h775q25 0 24 -25v-282q0 -25 -24 -25h-90q-25 0 -25 25v164h-363v-455h404q25 0 24 -25v-94q0 -25 -24 -24h-404v-519h377v183q0 25 25 24h90q25 0 25 -24v-301q0 -25 -25 -25h-789q-24 0 -24 25z M213 1595q0 45 31.5 77t77 32t77 -33t31.5 -76t-31.5 -75.5t-77 -32.5t-77 31.5t-31.5 76.5zM616 1595q0 45 32 77t77 32t77 -32t32 -77t-32 -76.5t-77 -31.5t-77 31.5t-32 76.5z" />
<glyph unicode="&#x402;" horiz-adv-x="1304" d="M51 1028v350q0 25 25 25h831q25 0 25 -25v-350q0 -25 -23 -24h-94h-9q-3 0 -6 2t-5 8t-2 14v232h-218v-437q143 68 279 68q162 0 262 -100q109 -109 109 -342q0 -242 -78 -357q-86 -123 -248 -121q-82 0 -166 35q-31 12 -26 31l20 88q8 41 47 18q61 -37 131 -34 q66 2 103 55q45 66 45 260q0 174 -45 242q-59 88 -195 88q-88 0 -170 -37l-68 -31v-661q0 -25 -24 -25h-289q-25 0 -24 25v84q0 25 24 24h146v1127h-218v-232q0 -25 -24 -24h-90q-25 -1 -25 24z" />
<glyph unicode="&#x403;" horiz-adv-x="948" d="M80 25v84q0 25 24 24h129v1137h-129q-25 0 -24 24v84q0 25 24 25h775q25 0 24 -25v-350q0 -25 -24 -24h-91q-25 0 -24 24v232h-363v-1127h164q25 0 25 -24v-84q0 -25 -25 -25h-461q-24 0 -24 25zM246 1577q0 8 10 12l336 209q12 6 16 6q8 0 15 -8l59 -102q6 -10 6 -19 q0 -12 -22 -20l-353 -142q-2 0 -10 -3t-12 -3q-8 0 -15 9l-26 49q-4 6 -4 12z" />
<glyph unicode="&#x404;" horiz-adv-x="991" d="M106 715q0 344 115 528q119 188 357 189q125 0 249 -70q49 -31 60.5 -43t11.5 -29v-227q0 -25 -25 -25h-90q-25 0 -24 25v178l-29 14q-74 39 -166 39q-123 0 -192 -98q-92 -133 -86 -391h405q25 0 25 -25v-88q0 -25 -25 -24h-401v-29q0 -219 61 -363q74 -168 238 -167 q78 0 164 43l16 8v182q0 25 25 25h90q25 0 24 -25v-213v-21q0 -5 -4 -14.5t-11 -15.5t-24 -17q-141 -90 -297 -90q-233 0 -354 209q-113 199 -113 535z" />
<glyph unicode="&#x405;" horiz-adv-x="983" d="M86 109v237q0 25 25 25h90q25 0 24 -25v-168l11 -4q135 -55 237 -55q123 0 183.5 69.5t60.5 163.5q0 72 -35 127.5t-73 83t-109 68.5q-178 102 -217 131q-164 121 -164 303q0 172 131 276q117 90 276 91q172 0 295 -70q27 -14 34 -24.5t7 -37.5v-225q0 -25 -24 -24h-90 q-25 0 -25 24v166l-14 6q-74 37 -189 37q-100 0 -158.5 -55t-58.5 -146q0 -121 123 -204q37 -25 105.5 -61t91.5 -48q279 -158 278 -397q0 -164 -112.5 -283t-321.5 -119q-94 0 -201.5 30t-159.5 60q-20 13 -20 48z" />
<glyph unicode="&#x406;" horiz-adv-x="681" d="M47 25v84q0 25 25 24h186v1137h-186q-25 0 -25 24v84q0 25 25 25h540q25 0 25 -25v-84q0 -25 -25 -24h-186v-1137h186q25 0 25 -24v-84q0 -25 -25 -25h-540q-25 0 -25 25z" />
<glyph unicode="&#x407;" horiz-adv-x="681" d="M29 1647q0 45 34.5 79.5t79.5 34.5t80 -34.5t35 -79.5t-35 -80t-80 -35t-79.5 35t-34.5 80zM47 25v84q0 25 25 24h186v1137h-186q-25 0 -25 24v84q0 25 25 25h540q25 0 25 -25v-84q0 -25 -25 -24h-186v-1137h186q25 0 25 -24v-84q0 -25 -25 -25h-540q-25 0 -25 25z M442 1647q0 45 35 79.5t80 34.5t80 -34.5t35 -79.5t-35 -80t-80 -35t-80 35t-35 80z" />
<glyph unicode="&#x408;" horiz-adv-x="909" d="M12 340v37q0 25 25 24h106q25 0 25 -24v-12q0 -125 49 -189q53 -68 157.5 -67.5t155.5 59.5q51 57 52 178v914h-359q-25 0 -24 24v94q0 25 24 25h502q25 0 25 -25v-1032q0 -168 -88 -266q-98 -109 -289 -109q-186 0 -279 117q-82 102 -82 252z" />
<glyph unicode="&#x409;" horiz-adv-x="1712" d="M23 96q-12 37 20 41l23 2q106 10 154 64.5t73 142.5q68 233 67 750v174h-129q-25 0 -24 24v84q0 25 24 25h910q25 0 24 -25v-84q0 -25 -24 -24h-129v-459h200q180 0 297 -82q152 -109 152 -330q0 -168 -94 -274q-111 -125 -348 -125h-504q-25 0 -25 25v84q0 25 25 24h129 v1127h-330v-37q0 -389 -29 -670q-29 -268 -100 -399q-84 -147 -258 -179q-68 -10 -74 15zM1012 143h198q137 0 207 78q59 68 60 182q0 125 -76 195q-74 70 -201 70h-188v-525z" />
<glyph unicode="&#x40a;" horiz-adv-x="1794" d="M80 25v84q0 25 24 24h129v1137h-129q-25 0 -24 24v84q0 25 24 25h426q25 0 25 -25v-84q0 -25 -25 -24h-129v-465h525v465h-129q-25 0 -25 24v84q0 25 25 25h426q25 0 24 -25v-84q0 -25 -24 -24h-129v-465h200q184 0 297 -80q152 -102 152 -328q0 -113 -48 -206t-145 -142 q-98 -49 -256 -49h-497q-25 0 -25 25v84q0 25 25 24h129v529h-525v-529h129q25 0 25 -24v-84q0 -25 -25 -25h-426q-24 0 -24 25zM1094 143h198q125 0 196 69t71 191q0 72 -26 124.5t-57.5 77t-76.5 38.5t-68.5 16.5t-48.5 2.5h-188v-519z" />
<glyph unicode="&#x40b;" horiz-adv-x="1470" d="M51 1028v350q0 25 25 25h831q25 0 25 -25v-350q0 -25 -23 -24h-94h-9q-3 0 -6 2t-5 8t-2 14v232h-218v-437q160 68 299 68q164 0 254 -76q109 -92 109 -262v-420h129q25 0 25 -24v-84q0 -25 -25 -25h-426q-25 0 -25 25v84q0 25 25 24h129v420q0 94 -49 143 q-57 57 -168 58q-74 0 -147 -21q-53 -14 -130 -47v-553h130q25 0 24 -24v-84q0 -25 -24 -25h-443q-25 0 -24 25v84q0 25 24 24h146v1127h-218v-232q0 -25 -24 -24h-90q-25 -1 -25 24z" />
<glyph unicode="&#x40c;" horiz-adv-x="1169" d="M80 25v84q0 25 24 24h129v1137h-129q-25 0 -24 24v84q0 25 24 25h426q25 0 25 -25v-84q0 -25 -25 -24h-129v-469h140q41 0 65.5 8t52 49t48.5 119l38 151q41 164 92.5 220.5t163.5 76.5l23 5q31 6 39 -21l29 -92q6 -12 0.5 -20.5t-29.5 -14.5l-31 -6q-59 -12 -81.5 -41 t-55.5 -150l-31 -114q-12 -49 -20 -71.5t-24.5 -59.5t-43 -62.5t-63.5 -46.5q123 -49 159 -180l76 -279q20 -74 42 -103.5t79 -37.5l39 -6q39 -6 29 -33l-31 -98q-6 -23 -20.5 -24t-45.5 5l-30 5q-117 14 -172 86q-8 10 -14.5 20t-12.5 26.5t-10 25.5t-10.5 32t-8.5 31 l-9 37l-9 36l-51 207q-27 111 -66 143.5t-106 32.5h-140v-524h129q25 0 25 -24v-84q0 -25 -25 -25h-426q-24 0 -24 25zM354 1577q0 8 11 12l335 209q12 6 17 6q8 0 14 -8l60 -102q6 -10 6 -19q0 -12 -23 -20l-352 -142q-2 0 -10.5 -3t-12.5 -3q-8 0 -14 9l-27 49q-4 6 -4 12 z" />
<glyph unicode="&#x40d;" horiz-adv-x="1327" d="M290 1755q0 2 9 19l59 88q10 16 21 16q4 0 20 -10l305 -236q8 -4 8 -14q0 -6 -8 -16l-26 -39q-8 -8 -14.5 -8.5t-14.5 3.5l-340 177q-19 12 -19 20zM80 25v84q0 25 24 24h129v1137h-129q-25 0 -24 24v84q0 25 24 25h426q25 0 25 -25v-84q0 -25 -25 -24h-129v-672 q0 -18 -1 -77.5t-3 -143.5h6q33 82 117 217l406 655v21h-129q-25 0 -25 24v84q0 25 25 25h426q25 0 24 -25v-84q0 -25 -24 -24h-129v-1137h129q25 0 24 -24v-84q0 -25 -24 -25h-426q-25 0 -25 25v84q0 25 25 24h129v672q0 18 1 75.5t3 145.5h-6q-33 -86 -111 -215l-412 -657 v-21h129q25 0 25 -24v-84q0 -25 -25 -25h-426q-24 0 -24 25z" />
<glyph unicode="&#x40e;" horiz-adv-x="1114" d="M20 1294v86v10q0 3 2.5 6t8.5 5t14 2h389q23 0 23 -23v-86q0 -25 -23 -24h-125l211 -553q35 -92 70 -223h6q18 92 68 249l163 527h-108q-25 0 -25 24v86v10q0 3 3 6t8.5 5t13.5 2h358q16 0 20.5 -5t4.5 -18v-86q0 -25 -25 -24h-84l-325 -1024q-57 -174 -148 -232 q-70 -43 -164 -43q-123 0 -223 72q-33 23 -20 49l43 88q8 14 20 15q10 0 37 -23q76 -63 143 -63q80 0 123 63q29 39 60 150l20 73h-72q-25 0 -34 29l-324 846h-84q-25 -1 -25 24zM291 1720v4q2 25 22 25l74 12q2 0 7 1t7 1q16 0 21 -18l6 -31q23 -113 129.5 -112.5 t128.5 112.5l6 31q4 23 35 16l74 -12q20 0 22 -25v-4q-2 -23 -13 -55.5t-38 -73.5t-83 -69.5t-132 -28.5t-132 28.5t-83 69.5t-38 73.5t-13 55.5z" />
<glyph unicode="&#x40f;" horiz-adv-x="1286" d="M80 25v84q0 25 24 24h129v1137h-129q-25 0 -24 24v84q0 25 24 25h426q25 0 25 -25v-84q0 -25 -25 -24h-129v-1127h484v1127h-129q-25 0 -25 24v84q0 25 25 25h426q25 0 24 -25v-84q0 -25 -24 -24h-129v-1137h129q25 0 24 -24v-84q0 -25 -24 -25h-455v-360q0 -25 -25 -25 h-118q-25 0 -25 25v360h-455q-24 0 -24 25z" />
<glyph unicode="&#x410;" horiz-adv-x="1234" d="M20 25v84q0 25 25 24h100l381 1247q8 23 31 23h121q23 0 31 -23l378 -1247h103q25 0 24 -24v-84q0 -25 -24 -25h-414q-25 0 -24 25v84q0 25 24 24h127l-80 285h-420l-77 -285h131q25 0 24 -24v-84q0 -25 -24 -25h-412q-25 0 -25 25zM442 561h342l-122 453 q-39 141 -48 194h-4q-31 -152 -43 -194z" />
<glyph unicode="&#x411;" horiz-adv-x="1175" d="M102 25v84q0 25 25 24h129v1137h-129q-25 0 -25 24v84q0 25 25 25h842q25 0 24 -25v-350q0 -25 -22 -24h-94h-10q-3 0 -6 2t-5 8t-2 14v232h-430v-449h201q213 0 330.5 -110.5t117.5 -303.5q0 -106 -34.5 -183t-83 -117t-122 -63.5t-129 -28.5t-124.5 -5h-453 q-25 0 -25 25zM424 143h199q125 0 195.5 69t70.5 191q0 74 -25.5 127.5t-57.5 79t-77 40t-68.5 16.5t-48.5 2h-188v-525z" />
<glyph unicode="&#x412;" horiz-adv-x="1138" d="M82 25v84q0 25 24 24h130v1137h-130q-25 0 -24 24v84q0 25 24 25h512q369 0 369 -334q0 -227 -203 -334q115 -27 183.5 -116t68.5 -232q0 -162 -94 -266q-111 -121 -338 -121h-498q-24 0 -24 25zM403 143h183q141 0 209 78q57 66 57 172q0 127 -86 199q-70 55 -191 55 h-172v-504zM403 784h129q143 0 209 70q61 66 62 197q0 94 -45 149q-51 59 -183 60h-172v-476z" />
<glyph unicode="&#x413;" horiz-adv-x="948" d="M80 25v84q0 25 24 24h129v1137h-129q-25 0 -24 24v84q0 25 24 25h775q25 0 24 -25v-350q0 -25 -24 -24h-91q-25 0 -24 24v232h-363v-1127h164q25 0 25 -24v-84q0 -25 -25 -25h-461q-24 0 -24 25z" />
<glyph unicode="&#x414;" horiz-adv-x="1251" d="M55 106v11v10q0 2 2 7t6.5 6t12.5 2t20 1h70q150 303 188 654q12 113 13 436v37h-129q-25 0 -25 24v84q0 25 25 25h909q25 0 24 -25v-84q0 -25 -24 -24h-129v-1127h112q12 0 20.5 -1t12.5 -2t6 -6t2 -7v-10v-11v-466q0 -25 -24 -25h-119q-25 0 -24 25v360h-781v-360 q0 -25 -24 -25h-119q-25 0 -25 25v466zM336 143h514v1117h-330v-113q0 -352 -49 -590q-43 -215 -135 -414z" />
<glyph unicode="&#x415;" horiz-adv-x="985" d="M82 25v84q0 25 24 24h130v1137h-130q-25 0 -24 24v84q0 25 24 25h775q25 0 24 -25v-282q0 -25 -24 -25h-90q-25 0 -25 25v164h-363v-455h404q25 0 24 -25v-94q0 -25 -24 -24h-404v-519h377v183q0 25 25 24h90q25 0 25 -24v-301q0 -25 -25 -25h-789q-24 0 -24 25z" />
<glyph unicode="&#x416;" horiz-adv-x="1642" d="M31 92q-10 27 28 33l39 6q57 8 79 38t42 103l76 279q37 131 160 180q-37 20 -63.5 46t-43 63t-25 59.5t-20.5 71.5l-31 114q-33 121 -55 150t-82 41l-31 6q-25 6 -29.5 14.5t1.5 20.5l28 92q8 27 39 21l23 -5q113 -23 164 -77q49 -55 92 -220l39 -151 q29 -113 65.5 -144.5t100.5 -31.5h110v469h-129q-25 0 -24 24v84q0 25 24 25h426q25 0 25 -25v-84q0 -25 -25 -24h-129v-469h111q41 0 65.5 8t52 49t48.5 119l39 151q43 164 92 220q51 55 164 77l22 5q31 6 39 -21l29 -92q6 -12 1 -20.5t-30 -14.5l-31 -6q-59 -12 -81.5 -41 t-55.5 -150l-31 -114q-12 -49 -20 -71.5t-24.5 -59.5t-43 -62.5t-63.5 -46.5q123 -49 160 -180l75 -279q20 -74 42 -103.5t79 -37.5l39 -6q39 -6 29 -33l-31 -98q-6 -23 -20.5 -24t-44.5 5l-31 5q-117 14 -172 86q-8 10 -14.5 20t-12.5 26.5t-10 25.5t-10 32t-9 31l-9 37 l-9 36l-51 207q-27 111 -66 143.5t-106 32.5h-111v-524h129q25 0 25 -24v-84q0 -25 -25 -25h-426q-25 0 -24 25v84q0 25 24 24h129v524h-110q-68 0 -107 -32.5t-65 -143.5l-52 -207l-9 -36l-9 -37q-2 -8 -8 -31t-10.5 -32t-10.5 -25.5t-12 -26.5t-14 -20q-55 -72 -172 -86 l-31 -5q-6 0 -18.5 -2t-15.5 -3t-10 0t-10 3t-6.5 7.5t-5.5 13.5z" />
<glyph unicode="&#x417;" horiz-adv-x="978" d="M92 102v8v9v10v213q0 25 25 25h90q25 0 24 -25v-176l23 -12q82 -45 176 -45q141 0 211 88q51 66 51 186q0 117 -53 186q-63 84 -193 84h-90q-25 0 -24 25v88q0 25 26 25h37q131 0 203 71q63 63 64 182q0 102 -50 173q-57 78 -166 77q-90 0 -174 -49l-14 -8v-174 q0 -25 -25 -25h-90q-25 0 -24 25v227q0 33 69 72q125 70 279 70q174 0 270 -97q100 -100 101 -266q0 -102 -51.5 -195.5t-155.5 -132.5q57 -16 106 -45.5t94.5 -107.5t45.5 -189q0 -180 -105 -297q-115 -131 -332 -131q-184 0 -311 90q-8 6 -14 11.5t-10.5 8.5t-6.5 7t-4 7 t-2 7z" />
<glyph unicode="&#x418;" horiz-adv-x="1327" d="M80 25v84q0 25 24 24h129v1137h-129q-25 0 -24 24v84q0 25 24 25h426q25 0 25 -25v-84q0 -25 -25 -24h-129v-672q0 -18 -1 -77.5t-3 -143.5h6q33 82 117 217l406 655v21h-129q-25 0 -25 24v84q0 25 25 25h426q25 0 24 -25v-84q0 -25 -24 -24h-129v-1137h129q25 0 24 -24 v-84q0 -25 -24 -25h-426q-25 0 -25 25v84q0 25 25 24h129v672q0 18 1 75.5t3 145.5h-6q-33 -86 -111 -215l-412 -657v-21h129q25 0 25 -24v-84q0 -25 -25 -25h-426q-24 0 -24 25z" />
<glyph unicode="&#x419;" horiz-adv-x="1327" d="M80 25v84q0 25 24 24h129v1137h-129q-25 0 -24 24v84q0 25 24 25h426q25 0 25 -25v-84q0 -25 -25 -24h-129v-672q0 -18 -1 -77.5t-3 -143.5h6q33 82 117 217l406 655v21h-129q-25 0 -25 24v84q0 25 25 25h426q25 0 24 -25v-84q0 -25 -24 -24h-129v-1137h129q25 0 24 -24 v-84q0 -25 -24 -25h-426q-25 0 -25 25v84q0 25 25 24h129v672q0 18 1 75.5t3 145.5h-6q-33 -86 -111 -215l-412 -657v-21h129q25 0 25 -24v-84q0 -25 -25 -25h-426q-24 0 -24 25zM397 1720v4q2 25 23 25l74 12q2 0 7 1t7 1q16 0 20 -18l7 -31q23 -113 129 -112.5t129 112.5 l6 31q4 23 35 16l73 -12q20 0 23 -25v-4q-2 -23 -13.5 -55.5t-38 -73.5t-83 -69.5t-132 -28.5t-132 28.5t-83 69.5t-38 73.5t-13.5 55.5z" />
<glyph unicode="&#x41a;" horiz-adv-x="1169" d="M80 25v84q0 25 24 24h129v1137h-129q-25 0 -24 24v84q0 25 24 25h426q25 0 25 -25v-84q0 -25 -25 -24h-129v-469h140q41 0 65.5 8t52 49t48.5 119l38 151q41 164 92.5 220.5t163.5 76.5l23 5q31 6 39 -21l29 -92q6 -12 0.5 -20.5t-29.5 -14.5l-31 -6q-59 -12 -81.5 -41 t-55.5 -150l-31 -114q-12 -49 -20 -71.5t-24.5 -59.5t-43 -62.5t-63.5 -46.5q123 -49 159 -180l76 -279q20 -74 42 -103.5t79 -37.5l39 -6q39 -6 29 -33l-31 -98q-6 -23 -20.5 -24t-45.5 5l-30 5q-117 14 -172 86q-8 10 -14.5 20t-12.5 26.5t-10 25.5t-10.5 32t-8.5 31 l-9 37l-9 36l-51 207q-27 111 -66 143.5t-106 32.5h-140v-524h129q25 0 25 -24v-84q0 -25 -25 -25h-426q-24 0 -24 25z" />
<glyph unicode="&#x41b;" horiz-adv-x="1245" d="M23 96q-12 37 20 41l23 2q106 10 154 64.5t73 142.5q37 125 49 342q18 299 18 408v174h-129q-25 0 -24 24v84q0 25 24 25h910q25 0 24 -25v-84q0 -25 -24 -24h-129v-1137h129q25 0 24 -24v-84q0 -25 -24 -25h-426q-25 0 -25 25v84q0 25 25 24h129v1127h-330v-37 q0 -389 -29 -670q-35 -367 -170 -492q-72 -66 -188 -86q-68 -10 -74 15z" />
<glyph unicode="&#x41c;" horiz-adv-x="1449" d="M61 25v84q0 25 25 24h115l63 1137h-143q-25 0 -25 24v84q0 25 25 25h303q16 0 27 -21l241 -706q20 -61 31 -127h4q10 66 31 127l241 706q10 20 27 21h303q25 0 25 -25v-84q0 -25 -25 -24h-143l63 -1137h115q25 0 25 -24v-84q0 -25 -25 -25h-420q-25 0 -24 25v84 q0 25 24 24h143l-26 881v194h-4q-8 -94 -25 -145l-246 -713q-6 -23 -30 -22h-62q-25 0 -30 22l-246 713q-16 51 -25 145h-4v-194l-27 -881h144q25 0 24 -24v-84q0 -25 -24 -25h-420q-25 0 -25 25z" />
<glyph unicode="&#x41d;" horiz-adv-x="1327" d="M80 25v84q0 25 24 24h129v1137h-129q-25 0 -24 24v84q0 25 24 25h426q25 0 25 -25v-84q0 -25 -25 -24h-129v-469h525v469h-129q-25 0 -25 24v84q0 25 25 25h426q25 0 24 -25v-84q0 -25 -24 -24h-129v-1137h129q25 0 24 -24v-84q0 -25 -24 -25h-426q-25 0 -25 25v84 q0 25 25 24h129v524h-525v-524h129q25 0 25 -24v-84q0 -25 -25 -25h-426q-24 0 -24 25z" />
<glyph unicode="&#x41e;" horiz-adv-x="1138" d="M106 702q0 61 3.5 112.5t15.5 147t43 169t79 146.5t131 114t191 41q63 0 121 -14.5t122.5 -62.5t111.5 -124t77.5 -212t30.5 -316.5t-30.5 -316.5t-77.5 -213t-113 -125t-122 -62.5t-120 -14.5q-66 0 -123 15.5t-121.5 62.5t-110.5 124t-77 213t-31 316zM291 702 q0 -272 37 -389q61 -205 241 -204q57 0 103.5 22.5t75 54t49 87t30 98.5t15.5 111.5t6 102.5v95v22q0 100 -4 170t-19.5 156t-44 139.5t-82 90t-129.5 36.5q-57 0 -103 -23.5t-75 -55t-49 -88t-29.5 -100.5t-14.5 -111.5t-6 -102.5t-1 -96v-15z" />
<glyph unicode="&#x41f;" horiz-adv-x="1286" d="M80 25v84q0 25 24 24h129v1137h-129q-25 0 -24 24v84q0 25 24 25h1078q25 0 24 -25v-84q0 -25 -24 -24h-129v-1137h129q25 0 24 -24v-84q0 -25 -24 -25h-426q-25 0 -25 25v84q0 25 25 24h129v1127h-484v-1127h129q25 0 25 -24v-84q0 -25 -25 -25h-426q-24 0 -24 25z" />
<glyph unicode="&#x420;" horiz-adv-x="1034" d="M82 25v84q0 25 24 24h130v1137h-130q-25 0 -24 24v84q0 25 24 25h508q182 0 279 -90q100 -92 100 -283q0 -225 -123 -336q-115 -102 -319 -102h-148v-459h152q25 0 25 -24v-84q0 -25 -25 -25h-449q-24 0 -24 25zM403 735h134q51 0 81.5 3t74.5 21.5t73 55.5q59 74 59 207 q0 127 -61 184q-57 53 -203 54h-158v-525z" />
<glyph unicode="&#x421;" horiz-adv-x="985" d="M106 715q0 367 123 545q119 172 342 172q129 0 252 -70q70 -39 70 -72v-227q0 -25 -25 -25h-90q-25 0 -24 25v174l-13 8q-72 49 -178 49q-131 0 -198 -114q-74 -125 -74 -406q0 -360 76 -520q37 -78 99 -111.5t122 -33.5q68 0 157 47l19 10v176q0 25 24 25h91 q25 0 24 -25v-213q0 -20 -1 -27.5t-9 -16.5t-29 -24q-137 -90 -297 -90q-227 0 -346 195q-115 187 -115 549z" />
<glyph unicode="&#x422;" horiz-adv-x="983" d="M51 1028v350q0 25 25 25h831q25 0 25 -25v-350q0 -25 -23 -24h-94h-9q-3 0 -6 2t-5 8t-2 14v232h-218v-1127h146q25 0 24 -24v-84q0 -25 -24 -25h-459q-25 0 -24 25v84q0 25 24 24h146v1127h-218v-232q0 -25 -24 -24h-90q-25 -1 -25 24z" />
<glyph unicode="&#x423;" horiz-adv-x="1114" d="M20 1294v86v10q0 3 2.5 6t8.5 5t14 2h389q23 0 23 -23v-86q0 -25 -23 -24h-125l211 -553q35 -92 70 -223h6q18 92 68 249l163 527h-108q-25 0 -25 24v86v10q0 3 3 6t8.5 5t13.5 2h358q16 0 20.5 -5t4.5 -18v-86q0 -25 -25 -24h-84l-325 -1024q-57 -174 -148 -232 q-70 -43 -164 -43q-123 0 -223 72q-33 23 -20 49l43 88q8 14 20 15q10 0 37 -23q76 -63 143 -63q80 0 123 63q29 39 60 150l20 73h-72q-25 0 -34 29l-324 846h-84q-25 -1 -25 24z" />
<glyph unicode="&#x424;" horiz-adv-x="1302" d="M102 715q0 195 70 297q115 166 365 166h30v118h-129q-25 0 -24 25v84q0 25 24 25h426q25 0 25 -25v-84q0 -25 -25 -25h-129v-118h31q250 0 364 -166q70 -102 70 -297q0 -197 -70 -297q-113 -166 -364 -166h-31v-119h129q25 0 25 -24v-84q0 -25 -25 -25h-426q-25 0 -24 25 v84q0 25 24 24h129v119h-30q-252 0 -365 166q-70 100 -70 297zM270 715q0 -174 58 -248q68 -88 221 -88h18v672h-18q-154 0 -221 -88q-58 -76 -58 -248zM735 379h19q154 0 221 88q57 74 57 248q0 172 -57 248q-68 88 -221 88h-19v-672z" />
<glyph unicode="&#x425;" horiz-adv-x="1138" d="M27 25v84q0 25 24 24h96l324 598l-295 539h-94q-25 0 -25 24v84q0 25 25 25h393q25 0 25 -25v-84q0 -25 -25 -24h-115l160 -293l51 -107q14 39 54 115l151 285h-96q-25 0 -25 24v84q0 25 25 25h371q25 0 24 -25v-84q0 -25 -24 -24h-93l-299 -533l334 -604h94q25 0 25 -24 v-84q0 -25 -25 -25h-393q-25 0 -24 25v84q0 25 24 24h111l-195 367q-10 18 -43 96l-41 -94l-194 -369h108q25 0 25 -24v-84q0 -25 -25 -25h-389q-24 0 -24 25z" />
<glyph unicode="&#x426;" horiz-adv-x="1302" d="M102 25v84q0 25 25 24h129v1137h-129q-25 0 -25 24v84q0 25 25 25h426q25 0 25 -25v-84q0 -25 -25 -24h-129v-1127h477v1127h-129q-25 0 -24 24v84q0 25 24 25h426q25 0 25 -25v-84q0 -25 -25 -24h-129v-1127h113q12 0 20 -1t12.5 -2t6.5 -6t2 -7v-10v-11v-466 q0 -25 -25 -25h-119q-25 0 -24 25v360h-928q-25 0 -25 25z" />
<glyph unicode="&#x427;" horiz-adv-x="1257" d="M41 1294v84q0 25 25 25h426q25 0 24 -25v-84q0 -25 -24 -24h-130v-375q0 -29 5.5 -54.5t24 -63.5t64.5 -60.5t115 -22.5q131 0 285 68v508h-129q-25 0 -25 24v84q0 25 25 25h426q25 0 25 -25v-84q0 -25 -25 -24h-129v-1137h129q25 0 25 -24v-84q0 -25 -25 -25h-426 q-25 0 -25 25v84q0 25 25 24h129v492q-160 -68 -297 -68q-156 0 -260 80t-104 258v375h-129q-25 -1 -25 24z" />
<glyph unicode="&#x428;" horiz-adv-x="1728" d="M80 25v84q0 25 24 24h129v1137h-129q-25 0 -24 24v84q0 25 24 25h426q25 0 25 -25v-84q0 -25 -25 -24h-129v-1127h379v1235q0 25 25 25h119q25 0 24 -25v-1235h379v1127h-129q-25 0 -24 24v84q0 25 24 25h426q25 0 25 -25v-84q0 -25 -25 -24h-129v-1137h129q25 0 25 -24 v-84q0 -25 -25 -25h-1520q-24 0 -24 25z" />
<glyph unicode="&#x429;" horiz-adv-x="1728" d="M80 25v84q0 25 24 24h129v1137h-129q-25 0 -24 24v84q0 25 24 25h426q25 0 25 -25v-84q0 -25 -25 -24h-129v-1127h379v1235q0 25 25 25h119q25 0 24 -25v-1235h379v1127h-129q-25 0 -24 24v84q0 25 24 25h426q25 0 25 -25v-84q0 -25 -25 -24h-129v-1127h113q12 0 20 -1 t12.5 -2t6.5 -6t2 -7v-10v-11v-466q0 -25 -25 -25h-119q-25 0 -24 25v360h-1377q-24 0 -24 25z" />
<glyph unicode="&#x42a;" horiz-adv-x="1292" d="M68 1028v350q0 25 24 25h629q25 0 24 -25v-84q0 -25 -24 -24h-129v-459h201q180 0 297 -82q152 -109 151 -332q0 -166 -94 -272q-111 -125 -336 -125h-532q-25 0 -25 25v84q0 25 25 24h145v1127h-217v-232q0 -25 -25 -24h-90q-24 -1 -24 24zM592 143h199q127 0 196.5 68 t69.5 192q0 129 -78 199q-74 66 -199 66h-188v-525z" />
<glyph unicode="&#x42b;" horiz-adv-x="1630" d="M80 25v84q0 25 24 24h129v1137h-129q-25 0 -24 24v84q0 25 24 25h426q25 0 25 -25v-84q0 -25 -25 -24h-129v-459h201q180 0 297 -82q152 -109 152 -332q0 -166 -95 -272q-111 -125 -338 -125h-514q-24 0 -24 25zM401 143h199q125 0 195.5 69t70.5 191q0 74 -25.5 127.5 t-57 79t-76.5 40t-69 16.5t-48 2h-189v-525zM1075 25v84q0 25 25 24h129v1137h-129q-25 0 -25 24v84q0 25 25 25h426q25 0 24 -25v-84q0 -25 -24 -24h-129v-1137h129q25 0 24 -24v-84q0 -25 -24 -25h-426q-25 0 -25 25z" />
<glyph unicode="&#x42c;" horiz-adv-x="1101" d="M80 25v84q0 25 24 24h129v1137h-129q-25 0 -24 24v84q0 25 24 25h426q25 0 25 -25v-84q0 -25 -25 -24h-129v-459h201q180 0 297 -82q152 -109 152 -332q0 -166 -95 -272q-109 -125 -342 -125h-510q-24 0 -24 25zM401 143h199q131 0 201 74q66 70 65 184q0 129 -78 201 q-76 66 -198 66h-189v-525z" />
<glyph unicode="&#x42d;" horiz-adv-x="997" d="M92 129v213q0 25 25 25h90q25 0 24 -25v-182l17 -8q86 -43 164 -43q164 0 237 167q61 143 62 363v29h-402q-25 0 -24 24v88q0 25 24 25h406q6 258 -86 391q-70 98 -193 98q-92 0 -166 -39l-28 -14v-178q0 -25 -25 -25h-90q-25 0 -25 25v227q0 12 3.5 18.5t18.5 19.5 t50 34q125 70 250 70q238 0 356 -189q115 -184 115 -528q0 -336 -113 -535q-121 -209 -354 -209q-156 0 -297 90q-20 12 -28.5 22.5t-9.5 18t-1 27.5z" />
<glyph unicode="&#x42e;" horiz-adv-x="1665" d="M80 25v84q0 25 24 24h129v1137h-129q-25 0 -24 24v84q0 25 24 25h426q25 0 25 -25v-84q0 -25 -25 -24h-129v-469h244q4 164 47 301q104 330 404 330q61 0 118.5 -14.5t123 -62.5t111.5 -124t78 -212t32 -316.5t-31 -316.5t-78 -213t-112.5 -124t-122 -62.5t-119.5 -15.5 q-295 0 -402 332q-49 158 -49 354h-244v-524h129q25 0 25 -24v-84q0 -25 -25 -25h-426q-24 0 -24 25zM823 702q0 -279 39 -399q63 -195 234 -194q57 0 103 22.5t75 55t49 88t29.5 98.5t15.5 111.5t6 102.5v93v22q0 98 -4 169t-19.5 157t-44 139.5t-82 90t-128.5 36.5 q-57 0 -102.5 -24.5t-74 -57t-48 -93t-28.5 -101.5t-14.5 -116t-5.5 -104v-96z" />
<glyph unicode="&#x42f;" horiz-adv-x="1144" d="M12 92q-10 27 29 33l39 6q49 8 72.5 33.5t46.5 93.5l73 242q39 127 138 188q-123 25 -189.5 116t-66.5 220q0 174 111.5 276.5t303.5 102.5h471q25 0 25 -25v-84q0 -25 -25 -24h-129v-1137h129q25 0 25 -24v-84q0 -25 -25 -25h-426q-25 0 -24 25v84q0 25 24 24h129v506 h-133q-41 0 -72.5 -15.5t-51 -48t-27.5 -53t-21 -59.5l-61 -201q-4 -16 -15.5 -56t-16.5 -55.5t-18.5 -46t-27.5 -45t-36.5 -33t-54.5 -29.5t-73 -17l-26 -5q-6 0 -18.5 -2t-15.5 -3t-10.5 0t-10.5 3t-6 7.5t-5 13.5zM322 1026q0 -74 24.5 -125t54 -75.5t78.5 -38 t71.5 -14.5t59.5 -1h133v488h-157q-264 -1 -264 -234z" />
<glyph unicode="&#x430;" horiz-adv-x="948" d="M82 260q0 127 78 215q111 123 415 139l43 2v74q0 39 -5 66.5t-21.5 57.5t-54 45t-93.5 15q-115 0 -227 -53l-29 -12q-12 0 -16 10l-31 82q-2 4 -2 17q0 16 45 34l29 13q106 47 238 47q150 0 221 -51q102 -72 102 -236v-393q0 -139 25 -205h96q25 0 25 -25v-77 q0 -25 -25 -25h-174q-29 0 -43 22.5t-29 67.5l-6 19l-8 -9q-129 -129 -287 -129q-119 0 -192.5 78t-73.5 211zM238 272q0 -90 45 -132t102 -42q106 0 221 115l12 12v264h-8q-190 0 -280 -55q-92 -56 -92 -162z" />
<glyph unicode="&#x431;" horiz-adv-x="1038" d="M109 586q0 295 53 446q78 217 313 326l340 153q39 16 53 -12l35 -72q14 -27 -29 -45l-382 -176q-231 -106 -259 -364l-6 -64h13q43 98 127 152q82 53 182 53q180 0 289 -139q98 -127 98 -363q0 -129 -22.5 -208.5t-77.5 -149.5q-123 -152 -306 -152q-111 0 -209 57.5 t-153 178.5q-59 129 -59 379zM289 481q0 -383 239.5 -383t239.5 379q0 119 -24.5 201t-65.5 116.5t-76 48t-74 13.5t-74.5 -13.5t-75.5 -48t-64.5 -115.5t-24.5 -198z" />
<glyph unicode="&#x432;" horiz-adv-x="976" d="M61 881v77q0 25 25 25h465q113 0 186 -41q109 -61 109 -207q0 -160 -135 -215q76 -18 125 -78.5t49 -162.5q0 -123 -82 -197q-90 -82 -244 -82h-334q-25 0 -24 25v831h-115q-25 0 -25 25zM356 127h193q180 0 180 158q0 72 -37 112q-47 51 -133 52h-203v-322zM356 575h189 q66 0 109.5 36t43.5 104q0 141 -159 141h-183v-281z" />
<glyph unicode="&#x433;" horiz-adv-x="858" d="M72 25v77q0 25 24 25h115v729h-115q-25 0 -24 25v77q0 25 24 25h676q25 0 25 -25v-350q0 -25 -25 -24h-90q-25 0 -25 24v248h-290v-729h145q25 0 25 -25v-77q0 -25 -25 -25h-416q-24 0 -24 25z" />
<glyph unicode="&#x434;" horiz-adv-x="993" d="M41 100v4v12q0 3 7 7t22 4h75q141 276 125 729h-114q-25 0 -25 25v77q0 25 25 25h637q29 0 28 -29v-827h103q10 0 17 -2t9 -5t2 -7v-9v-4v-356q0 -25 -24 -25h-99q-25 0 -24 25v256h-617v-256q0 -25 -24 -25h-98q-25 0 -25 25v356zM299 127h367v729h-258v-135 q0 -350 -109 -594z" />
<glyph unicode="&#x435;" horiz-adv-x="960" d="M96 492q0 250 127 395q111 125 281 125q162 0 254 -101q117 -123 116 -407v-10q0 -35 -22 -35h-588v-10q0 -119 51 -209q39 -68 103.5 -99.5t128.5 -31.5q100 0 225 71q16 8 25 10h4q8 0 10 -10l37 -92q2 -4 2 -12q0 -14 -76 -51q-119 -53 -231 -54q-219 0 -340 156 q-107 140 -107 365zM264 586h443q0 96 -33 174q-51 125 -182 125q-129 0 -189 -121q-39 -82 -39 -178z" />
<glyph unicode="&#x436;" horiz-adv-x="1384" d="M63 80q-6 18 0.5 22t24.5 7l25 4q43 6 60 20t32 57l63 197q33 104 135 131q-100 31 -135 162l-22 82q-14 49 -29.5 73.5t-28 29.5t-36.5 9l-29 5q-27 4 -29 16q0 4 2 8l23 92q4 16 26 17q100 0 162 -60q47 -45 78 -161l27 -107q27 -111 127 -111h75v385q0 25 25 25h106 q25 0 25 -25v-385h76q100 0 127 111l26 107q31 117 78 161q61 59 162 60q23 0 27 -17l22 -92q6 -20 -22 -24h-4l-29 -5q-25 -4 -37 -9t-27.5 -29.5t-29.5 -73.5l-23 -82q-35 -131 -135 -162q102 -27 135 -131l64 -197q14 -43 31.5 -57t60.5 -20l24 -4q12 -2 16.5 -3.5 t10.5 -7.5t-2 -18l-27 -92q-4 -16 -28 -17q-133 0 -187 64q-29 33 -63 158l-41 145q-18 68 -47 88t-80 20h-78v-421q0 -25 -25 -25h-106q-25 0 -25 25v421h-77q-51 0 -80 -20t-47 -88l-41 -145q-35 -125 -64 -158q-53 -63 -186 -64q-25 0 -29 17z" />
<glyph unicode="&#x437;" horiz-adv-x="860" d="M82 76q0 8 2 12l45 82q4 8 10 10h4q8 -2 25 -10q125 -72 242 -72q92 0 141 50.5t49 127.5q0 90 -63 132q-45 31 -160 30h-35q-27 0 -27 27v72q0 29 27 28h37q102 0 158 53q45 45 45 117t-45 113q-41 37 -109 37q-106 0 -180 -49v-109q0 -25 -25 -25h-65q-25 0 -25 25v174 q0 20 21 33q139 78 276 78q141 0 223 -72t82 -197q0 -80 -46 -139t-120 -84v-6q80 -16 133 -72q66 -68 66 -166q0 -115 -74 -196q-100 -109 -295 -109q-156 0 -288 78q-29 19 -29 27z" />
<glyph unicode="&#x438;" horiz-adv-x="1112" d="M61 881v77q0 25 25 25h246q25 0 24 -25v-516l-6 -200h6q29 53 57.5 110.5t41.5 77.5l313 543q6 10 23 10h106q25 0 25 -25v-831h114q25 0 25 -25v-77q0 -25 -25 -25h-245q-25 0 -25 25v516l6 198h-6q-49 -88 -63.5 -119.5t-34.5 -66.5l-314 -543q-6 -10 -22 -10h-107 q-25 0 -24 25v831h-115q-25 0 -25 25z" />
<glyph unicode="&#x439;" horiz-adv-x="1112" d="M61 881v77q0 25 25 25h246q25 0 24 -25v-516l-6 -200h6q29 53 57.5 110.5t41.5 77.5l313 543q6 10 23 10h106q25 0 25 -25v-831h114q25 0 25 -25v-77q0 -25 -25 -25h-245q-25 0 -25 25v516l6 198h-6q-49 -88 -63.5 -119.5t-34.5 -66.5l-314 -543q-6 -10 -22 -10h-107 q-25 0 -24 25v831h-115q-25 0 -25 25zM279 1358q0 20 22 24l82 15q2 0 7 1t7 1q18 0 23 -19l6 -30q12 -55 51 -82t88 -27q117 0 140 109l6 30q4 23 39 17l79 -15q25 -6 25 -24q0 -2 -8 -35q-23 -82 -78 -129q-78 -66 -203 -66q-129 0 -203 66q-57 51 -77 129q-6 21 -6 35z " />
<glyph unicode="&#x43a;" horiz-adv-x="989" d="M61 881v77q0 25 25 25h244q25 0 24 -25v-385h97q100 0 127 111l26 107q10 43 23.5 75.5t39 69.5t70.5 56.5t107 19.5q23 0 26 -17l23 -92q6 -20 -23 -24h-4l-28 -5q-25 -4 -37.5 -9t-27.5 -29.5t-30 -73.5l-22 -82q-35 -131 -135 -162q102 -27 135 -131l63 -197 q14 -43 32 -57t61 -20l24 -4q12 -2 16.5 -3.5t10.5 -7.5t-2 -18l-27 -92q-4 -16 -29 -17q-123 0 -168 43t-81 179l-41 145q-18 68 -47 88t-80 20h-99v-421q0 -25 -24 -25h-107q-25 0 -24 25v831h-113q-25 0 -25 25z" />
<glyph unicode="&#x43b;" horiz-adv-x="1030" d="M20 74q-6 31 25 35h6l19 2q57 6 94 29.5t58.5 69.5t31.5 94t18 130q23 205 19 422h-115q-25 0 -24 25v77q0 25 24 25h637q27 0 27 -31v-825h114q25 0 25 -25v-77q0 -25 -25 -25h-385q-25 0 -24 25v77q0 25 24 25h115v729h-250v-35q0 -231 -26 -444q-18 -141 -62.5 -238.5 t-140.5 -140.5q-72 -27 -125 -27q-43 0 -47 31z" />
<glyph unicode="&#x43c;" horiz-adv-x="1208" d="M76 25v77q0 25 24 25h80l41 729h-78q-25 0 -24 25v77q0 25 24 25h246q14 0 19 -18l157 -449q20 -59 37 -139h4q16 80 37 139l158 449q4 18 18 18h246q25 0 25 -25v-77q0 -25 -25 -25h-78l41 -729h80q25 0 25 -25v-77q0 -25 -25 -25h-207q-16 0 -16 16l-23 711v76h-4 q-6 -39 -16 -76l-172 -498q-8 -20 -25 -20h-82q-16 0 -24 20l-172 498q-10 37 -17 76h-4v-76l-22 -711q0 -16 -17 -16h-207q-24 0 -24 25z" />
<glyph unicode="&#x43d;" horiz-adv-x="1128" d="M72 25v77q0 25 24 25h115v729h-115q-25 0 -24 25v77q0 25 24 25h246q25 0 25 -25v-389h395v287h-115q-25 0 -24 25v77q0 25 24 25h385q25 0 25 -25v-77q0 -25 -25 -25h-114v-729h114q25 0 25 -25v-77q0 -25 -25 -25h-246q-25 0 -24 25v417h-395v-315h114q25 0 25 -25v-77 q0 -25 -25 -25h-385q-24 0 -24 25z" />
<glyph unicode="&#x43e;" horiz-adv-x="1019" d="M102 487q0 268 118 396.5t298 128.5q172 0 286 -123t114 -391q0 -270 -119 -398.5t-301 -128.5q-166 0 -281 123t-115 393zM270 506q0 -408 242 -408q238 0 238 402q0 385 -240 385t-240 -379z" />
<glyph unicode="&#x43f;" horiz-adv-x="1107" d="M72 25v77q0 25 24 25h115v729h-115q-25 0 -24 25v77q0 25 24 25h916q25 0 24 -25v-77q0 -25 -24 -25h-115v-729h115q25 0 24 -25v-77q0 -25 -24 -25h-246q-25 0 -25 25v831h-374v-729h114q25 0 25 -25v-77q0 -25 -25 -25h-385q-24 0 -24 25z" />
<glyph unicode="&#x440;" horiz-adv-x="1056" d="M61 881v77q0 25 25 25h184q10 0 19.5 -4t15.5 -9t11.5 -14.5t7.5 -14.5t6 -16.5t4 -13.5l8 -20l10 8q139 113 277 113q170 0 252 -135q74 -121 73 -365q0 -158 -32.5 -270.5t-88 -168t-109.5 -79t-112 -23.5q-119 0 -233 84l-8 6v-348h131q25 0 24 -24v-78q0 -25 -24 -25 h-404q-25 0 -24 25v78q0 25 24 24h117v1014q0 70 -8 111l-4 18h-117q-25 0 -25 25zM371 197q123 -88 213 -88q119 0 164 100q39 82 38 299q0 174 -30 258q-43 109 -150 108q-82 0 -223 -92l-12 -8v-577z" />
<glyph unicode="&#x441;" horiz-adv-x="884" d="M102 461q0 258 121 411q113 139 287 140q55 0 132 -18.5t124 -49.5l16 -10q20 -12 21 -33v-184q0 -25 -25 -25h-84q-25 0 -24 25v119q-74 39 -150 38q-59 0 -104 -19t-72 -57t-43 -74t-22.5 -87t-7.5 -78t-1 -67q0 -57 3 -101.5t17.5 -101t38 -93t69.5 -62t108 -25.5 q109 0 229 73q20 10 23 11q6 0 10 -9l39 -96q6 -16 -25 -37q-45 -29 -130 -54.5t-169 -25.5q-184 0 -286 144q-95 133 -95 346z" />
<glyph unicode="&#x442;" horiz-adv-x="901" d="M61 647v311q0 25 25 25h729q25 0 25 -25v-313q0 -25 -25 -24h-84q-25 0 -24 24v211h-179v-729h115q25 0 25 -25v-77q0 -25 -25 -25h-385q-25 0 -25 25v77q0 25 25 25h115v729h-178v-209q0 -25 -25 -24h-84q-25 -1 -25 24z" />
<glyph unicode="&#x443;" d="M14 881v77q0 25 25 25h375q25 0 24 -25v-71v-9q0 -3 -2 -6.5t-8 -5.5t-14 -2h-131l223 -657q20 -61 39 -139l2 -9h4q6 47 31 144l172 661h-121q-25 0 -25 25v69q0 25 25 25h356q25 0 25 -25v-77q0 -25 -25 -25h-76l-211 -729q-68 -231 -106.5 -331.5t-83.5 -145.5 q-76 -80 -195 -80q-102 0 -208 59q-37 20 -44.5 33.5t1.5 22.5l40 82q4 10 15 10q6 0 35 -21q90 -59 159 -59q61 0 96 47t62 127l43 129h-74q-18 0 -26 18l-295 838h-82q-25 0 -25 25z" />
<glyph unicode="&#x444;" horiz-adv-x="1323" d="M102 498q0 279 92.5 396.5t211.5 117.5q88 0 178 -80v377h-115q-25 0 -25 24v78q0 25 25 25h246q25 0 24 -25v-479q90 80 185 80q141 0 221 -140q76 -135 76 -374q0 -133 -25 -233.5t-59.5 -155t-82.5 -87t-85 -42t-74 -9.5q-92 0 -156 64v-322h131q25 0 25 -24v-78 q0 -25 -25 -25h-403q-25 0 -25 25v78q0 25 25 24h117v322q-63 -63 -152 -64q-152 0 -239 131q-91 136 -91 396zM258 502q0 -160 31 -260q43 -143 162 -144q68 0 133 74v623q-27 39 -70 64.5t-82 25.5q-86 0 -129 -90q-45 -96 -45 -293zM739 172q70 -74 142 -74 q115 0 155 148q29 98 29 256q0 172 -35 268q-23 61 -61.5 88t-77.5 27q-86 0 -152 -90v-623z" />
<glyph unicode="&#x445;" d="M51 25v77q0 25 25 25h76l286 375l-250 354h-92q-25 0 -24 25v77q0 25 24 25h342q25 0 25 -25v-69q0 -25 -25 -25h-78l97 -147l61 -99l27 41l141 205h-78q-25 0 -24 25v69q0 25 24 25h318q25 0 24 -25v-77q0 -25 -24 -25h-72l-254 -338l274 -391h76q25 0 25 -25v-77 q0 -25 -25 -25h-327q-25 0 -25 25v69q0 25 25 25h73l-125 190q-39 57 -53 86l-49 -76l-141 -200h94q25 0 24 -25v-69q0 -25 -24 -25h-346q-25 0 -25 25z" />
<glyph unicode="&#x446;" horiz-adv-x="1062" d="M72 25v77q0 25 24 25h115v729h-115q-25 0 -24 25v77q0 25 24 25h246q25 0 25 -25v-831h358v729h-115q-25 0 -24 25v77q0 25 24 25h246q25 0 25 -25v-831h102q10 0 17.5 -2t9.5 -5t2 -7v-9v-4v-356q0 -25 -25 -25h-98q-25 0 -25 25v256h-768q-24 0 -24 25z" />
<glyph unicode="&#x447;" horiz-adv-x="1064" d="M45 881v77q0 25 25 25h245q25 0 25 -25v-323q0 -49 21.5 -82t57.5 -45t55.5 -15.5t39.5 -3.5q86 0 184 39v328h-114q-25 0 -25 25v77q0 25 25 25h385q25 0 24 -25v-77q0 -25 -24 -25h-115v-729h115q25 0 24 -25v-77q0 -25 -24 -25h-385q-25 0 -25 25v77q0 25 25 25h114 v274q-117 -39 -206 -39q-100 0 -168 32t-95.5 84t-36 91t-8.5 82v205h-114q-25 0 -25 25z" />
<glyph unicode="&#x448;" horiz-adv-x="1474" d="M72 25v77q0 25 24 25h115v729h-115q-25 0 -24 25v77q0 25 24 25h246q25 0 25 -25v-831h292v729h-114q-25 0 -25 25v77q0 25 25 25h246q25 0 24 -25v-831h293v729h-115q-25 0 -24 25v77q0 25 24 25h385q25 0 25 -25v-77q0 -25 -25 -25h-114v-729h114q25 0 25 -25v-77 q0 -25 -25 -25h-1282q-24 0 -24 25z" />
<glyph unicode="&#x449;" horiz-adv-x="1445" d="M72 25v77q0 25 24 25h115v729h-115q-25 0 -24 25v77q0 25 24 25h246q25 0 25 -25v-831h292v729h-114q-25 0 -25 25v77q0 25 25 25h246q25 0 24 -25v-831h293v729h-115q-25 0 -24 25v77q0 25 24 25h246q25 0 25 -25v-831h102q10 0 17.5 -2t9.5 -5t2 -7v-9v-4v-356 q0 -25 -25 -25h-98q-25 0 -25 25v256h-1151q-24 0 -24 25z" />
<glyph unicode="&#x44a;" horiz-adv-x="1042" d="M55 645v313q0 25 25 25h409q25 0 25 -25v-362h160q141 0 231 -70q106 -82 107 -237q0 -139 -109 -223q-88 -66 -246 -66h-413q-25 0 -25 25v77q0 25 25 25h114v729h-180v-211q0 -25 -24 -24h-74q-25 -1 -25 24zM514 127h141q104 0 156 51q45 45 45 117q0 94 -72 143 q-47 31 -129 31h-141v-342z" />
<glyph unicode="&#x44b;" horiz-adv-x="1327" d="M72 25v77q0 25 24 25h115v729h-115q-25 0 -24 25v77q0 25 24 25h246q25 0 25 -25v-362h159q141 0 232 -70q106 -82 106 -237q0 -139 -108 -223q-88 -66 -246 -66h-414q-24 0 -24 25zM367 127h141q109 0 160 55q41 45 41 113q0 98 -74 145q-47 29 -127 29h-141v-342z M821 881v77q0 25 25 25h385q25 0 24 -25v-77q0 -25 -24 -25h-115v-729h115q25 0 24 -25v-77q0 -25 -24 -25h-244q-27 0 -26 31v825h-115q-25 0 -25 25z" />
<glyph unicode="&#x44c;" horiz-adv-x="894" d="M72 25v77q0 25 24 25h115v729h-115q-25 0 -24 25v77q0 25 24 25h246q25 0 25 -25v-362h159q141 0 232 -70q106 -82 106 -231q0 -147 -108 -229q-88 -66 -246 -66h-414q-24 0 -24 25zM367 127h141q104 0 156 51q45 45 45 117q0 96 -70 141q-51 33 -131 33h-141v-342z" />
<glyph unicode="&#x44d;" horiz-adv-x="917" d="M92 76q0 10 2 12l39 82q4 8 10 10h4q8 -2 25 -10q129 -72 225 -72q152 0 213 133q37 82 37 193v14h-299q-25 0 -24 25v78q0 25 26 24h297q4 147 -59 232q-63 88 -176 88q-76 0 -152 -39v-119q0 -25 -24 -25h-82q-25 0 -25 25v174q0 20 21 33l16 10q109 68 252 68 q184 0 289 -125q109 -129 108 -377q0 -227 -86 -371q-100 -168 -334 -168q-139 0 -274 78q-29 17 -29 27z" />
<glyph unicode="&#x44e;" horiz-adv-x="1421" d="M72 881v77q0 25 24 25h246q25 0 25 -25v-389h157q10 199 117 324q100 119 279 119q186 0 290 -131q109 -137 109 -383q0 -240 -108.5 -383.5t-305.5 -143.5q-193 0 -297 154q-90 139 -88 317h-153v-417q0 -25 -25 -25h-106q-25 0 -25 25v831h-115q-24 0 -24 25zM678 506 q0 -408 235 -408q238 0 238 402q0 385 -240 385q-233 0 -233 -379z" />
<glyph unicode="&#x44f;" horiz-adv-x="970" d="M32 97q5 7 8 8t17 4l29 4q35 4 55.5 18t25.5 25.5t15 38.5l49 149q31 90 99 121v6q-113 20 -158 92t-45 144q0 133 96 206q92 70 258 70h275q25 0 24 -25v-831h115q25 0 25 -25v-77q0 -25 -25 -25h-246q-25 0 -24 25v395h-111q-37 0 -61.5 -8.5t-38 -26.5t-19.5 -30.5 t-14 -41.5l-43 -143q-29 -98 -59 -135q-55 -63 -191 -64q-25 0 -29 17l-26 92q-6 10 -1 17zM283 707q0 -84 63 -125q55 -35 137 -35h142v309h-142q-98 0 -145 -35q-55 -38 -55 -114z" />
<glyph unicode="&#x450;" horiz-adv-x="960" d="M131 1335q0 2 9 19l59 88q10 16 21 16q4 0 20 -10l305 -236q8 -4 8 -14q0 -6 -8 -16l-26 -39q-8 -8 -14.5 -8.5t-14.5 3.5l-340 177q-19 12 -19 20zM96 492q0 250 127 395q111 125 281 125q162 0 254 -101q117 -123 116 -407v-10q0 -35 -22 -35h-588v-10q0 -119 51 -209 q39 -68 103.5 -99.5t128.5 -31.5q100 0 225 71q16 8 25 10h4q8 0 10 -10l37 -92q2 -4 2 -12q0 -14 -76 -51q-119 -53 -231 -54q-219 0 -340 156q-107 140 -107 365zM264 586h443q0 96 -33 174q-51 125 -182 125q-129 0 -189 -121q-39 -82 -39 -178z" />
<glyph unicode="&#x451;" horiz-adv-x="960" d="M96 492q0 244 115 382t293 138q72 0 132 -21.5t116.5 -75t89 -158t32.5 -253.5v-10q0 -35 -22 -35h-588v-10q0 -104 43 -189q80 -152 240 -151q96 0 225 71q16 8 25 10h4q8 0 10 -10l37 -92q2 -4 2 -12t-29 -27q-135 -78 -278 -78q-82 0 -156 26t-141.5 82t-108.5 163 t-41 250zM207 1288q0 45 31.5 77t76.5 32t77 -33t32 -76t-32 -75.5t-77 -32.5t-76.5 31.5t-31.5 76.5zM264 586h443q0 96 -33 174q-51 125 -182 125q-129 0 -189 -121q-39 -82 -39 -178zM610 1288q0 45 32 77t77 32t76.5 -32t31.5 -77t-31.5 -76.5t-76.5 -31.5t-77 31.5 t-32 76.5z" />
<glyph unicode="&#x452;" horiz-adv-x="1007" d="M72 1366v78q0 25 24 24h254q25 0 25 -24v-211h280q27 0 27 -31v-53q0 -25 -25 -25h-282v-245v-7q154 139 315 140q135 0 198.5 -104.5t63.5 -323.5q0 -381 -92 -621q-84 -217 -244 -409q-27 -33 -41 -33q-10 0 -18 6l-53 33q-14 10 -15 22q0 8 21 35q133 158 209 399 q66 213 65 541q0 213 -45 270q-35 47 -108 47q-57 0 -111 -24q-74 -33 -145 -100v-623h114q25 0 25 -25v-77q0 -25 -25 -25h-387q-25 0 -24 25v77q0 25 24 25h117v997h-117q-25 0 -24 25v59q0 25 24 25h117v108h-123q-24 0 -24 25z" />
<glyph unicode="&#x453;" horiz-adv-x="858" d="M72 25v77q0 25 24 25h115v729h-115q-25 0 -24 25v77q0 25 24 25h676q25 0 25 -25v-350q0 -25 -25 -24h-90q-25 0 -25 24v248h-290v-729h145q25 0 25 -25v-77q0 -25 -25 -25h-416q-24 0 -24 25zM252 1174q0 10 8 14l305 235q16 10 21 11q10 0 20 -17l60 -88q8 -16 8 -18 q0 -8 -19 -21l-340 -176q-8 -4 -14 -4t-14 8l-27 39q-8 11 -8 17z" />
<glyph unicode="&#x454;" horiz-adv-x="901" d="M102 510q0 246 109 377q104 125 289 125q143 0 252 -68l16 -10q20 -12 20 -33v-174q0 -25 -24 -25h-82q-25 0 -25 25v119q-76 39 -151 39q-113 0 -176 -88q-63 -84 -60 -232h297q27 0 27 -24v-78q0 -25 -25 -25h-299v-14q0 -111 37 -193q61 -133 213 -133q96 0 225 72 q16 8 25 10h4q6 -2 10 -10l39 -82q2 -2 2 -12t-28 -27q-135 -78 -275 -78q-233 0 -338 168q-82 133 -82 371z" />
<glyph unicode="&#x455;" horiz-adv-x="796" d="M86 74v188q0 25 25 25h84q25 0 24 -25v-119l17 -6l12 -4q12 -4 28 -8l37 -9q20 -5 45 -8.5t45 -3.5q86 0 126 43t40 105q0 66 -57 110q-31 23 -88 52l-117 55q-98 49 -145 108.5t-47 149.5q0 121 86 205q84 80 219 80q123 0 246 -62q23 -12 22 -32v-179q0 -25 -24 -24 h-84q-25 0 -25 24v113l-12 4q-80 23 -127 23q-74 0 -110 -39t-36 -97q0 -51 21 -77q27 -43 178 -115q166 -74 213 -143q43 -63 43 -146q0 -127 -90 -209t-238 -82q-129 0 -254 56q-57 24 -57 47z" />
<glyph unicode="&#x456;" horiz-adv-x="569" d="M31 881v77q0 25 24 25h291q27 0 27 -31v-825h145q25 0 25 -25v-77q0 -25 -25 -25h-448q-25 0 -25 25v77q0 25 25 25h147v729h-162q-24 0 -24 25zM158 1343.5q0 51.5 36.5 88t88 36.5t88.5 -36.5t37 -88t-37 -88t-88.5 -36.5t-88 36.5t-36.5 88z" />
<glyph unicode="&#x457;" horiz-adv-x="589" d="M31 1272q0 45 31.5 76.5t76.5 31.5t77 -32.5t32 -75.5t-32 -76t-77 -33t-76.5 32t-31.5 77zM51 881v77q0 25 25 25h293q25 0 24 -25v-831h146q25 0 24 -25v-77q0 -25 -24 -25h-449q-25 0 -24 25v77q0 25 24 25h148v729h-162q-25 0 -25 25zM330 1272q0 45 31.5 76.5 t76.5 31.5t77 -31.5t32 -76.5t-32 -77t-77 -32t-76.5 32t-31.5 77z" />
<glyph unicode="&#x458;" horiz-adv-x="559" d="M-156 -350q0 4 4 16l39 86q6 10 15 10h2q8 0 22 -8q94 -47 170 -47q27 0 47.5 4t35 14.5t25.5 17.5t17 27.5t10.5 27.5t6.5 34t2 32v34v30v928h-162q-25 0 -25 25v77q0 25 25 25h293q25 0 24 -25v-1067q0 -35 -3 -66.5t-20.5 -81.5t-46 -85t-88 -61.5t-141.5 -26.5 q-111 0 -219 51q-33 17 -33 29zM180 1343.5q0 51.5 37 88t88 36.5t88 -36.5t37 -88t-37 -88t-88 -36.5t-88 36.5t-37 88z" />
<glyph unicode="&#x459;" horiz-adv-x="1368" d="M20 74q-6 31 25 35h6l19 2q57 6 94 29.5t58.5 69.5t31.5 94t18 130q23 205 19 422h-115q-25 0 -24 25v77q0 25 24 25h637q27 0 27 -31v-356h159q170 0 254 -90t84 -217q0 -80 -32.5 -138.5t-74.5 -86t-100.5 -44t-87 -18.5t-59.5 -2h-414q-25 0 -24 25v77q0 25 24 25h115 v729h-250v-35q0 -231 -26 -444q-10 -80 -26.5 -139.5t-50.5 -126t-99.5 -103.5t-155.5 -37q-39 0 -43 31zM840 127h141q68 0 113 20.5t61 54.5t21.5 54t5.5 39q0 76 -47.5 125t-153.5 49h-141v-342z" />
<glyph unicode="&#x45a;" horiz-adv-x="1445" d="M72 25v77q0 25 24 25h115v729h-115q-25 0 -24 25v77q0 25 24 25h246q25 0 25 -25v-389h395v287h-115q-25 0 -24 25v77q0 25 24 25h385q25 0 25 -25v-77q0 -25 -25 -25h-114v-260h159q170 0 254 -90t84 -217q0 -80 -32.5 -138.5t-74.5 -86t-100.5 -44t-87 -18.5t-59.5 -2 h-275q-25 0 -24 25v417h-395v-315h114q25 0 25 -25v-77q0 -25 -25 -25h-385q-24 0 -24 25zM918 127h141q68 0 113 20.5t61 54.5t21.5 54t5.5 39q0 76 -47.5 125t-153.5 49h-141v-342z" />
<glyph unicode="&#x45b;" horiz-adv-x="1132" d="M72 1366v78q0 25 24 24h254q25 0 25 -24v-211h280q27 0 27 -31v-53q0 -25 -25 -25h-282v-245q152 133 323 133q131 0 189 -78q51 -68 51 -229v-578h115q25 0 24 -25v-77q0 -25 -24 -25h-246q-25 0 -25 25v684q0 80 -26 116q-35 49 -111 49q-61 0 -140 -36.5t-130 -87.5 v-623h114q25 0 25 -25v-77q0 -25 -25 -25h-387q-25 0 -24 25v77q0 25 24 25h117v997h-117q-25 0 -24 25v59q0 25 24 25h117v108h-123q-24 0 -24 25z" />
<glyph unicode="&#x45c;" horiz-adv-x="989" d="M61 881v77q0 25 25 25h244q25 0 24 -25v-385h97q100 0 127 111l26 107q10 43 23.5 75.5t39 69.5t70.5 56.5t107 19.5q23 0 26 -17l23 -92q6 -20 -23 -24h-4l-28 -5q-25 -4 -37.5 -9t-27.5 -29.5t-30 -73.5l-22 -82q-35 -131 -135 -162q102 -27 135 -131l63 -197 q14 -43 32 -57t61 -20l24 -4q12 -2 16.5 -3.5t10.5 -7.5t-2 -18l-27 -92q-4 -16 -29 -17q-123 0 -168 43t-81 179l-41 145q-18 68 -47 88t-80 20h-99v-421q0 -25 -24 -25h-107q-25 0 -24 25v831h-113q-25 0 -25 25zM322 1190q0 10 8 14l305 236q16 10 20 10q10 0 21 -16 l59 -88q8 -16 8 -19q0 -8 -18 -20l-340 -177q-8 -4 -14 -4t-15 9l-26 39q-8 10 -8 16z" />
<glyph unicode="&#x45d;" horiz-adv-x="1112" d="M118 1335q0 2 9 19l59 88q10 16 21 16q4 0 20 -10l305 -236q8 -4 8 -14q0 -6 -8 -16l-26 -39q-8 -8 -14.5 -8.5t-14.5 3.5l-340 177q-19 12 -19 20zM61 881v77q0 25 25 25h246q25 0 24 -25v-516l-6 -200h6q29 53 57.5 110.5t41.5 77.5l313 543q6 10 23 10h106 q25 0 25 -25v-831h114q25 0 25 -25v-77q0 -25 -25 -25h-245q-25 0 -25 25v516l6 198h-6q-49 -88 -63.5 -119.5t-34.5 -66.5l-314 -543q-6 -10 -22 -10h-107q-25 0 -24 25v831h-115q-25 0 -25 25z" />
<glyph unicode="&#x45e;" d="M14 881v77q0 25 25 25h375q25 0 24 -25v-71v-9q0 -3 -2 -6.5t-8 -5.5t-14 -2h-131l223 -657q20 -61 39 -139l2 -9h4q6 47 31 144l172 661h-121q-25 0 -25 25v69q0 25 25 25h356q25 0 25 -25v-77q0 -25 -25 -25h-76l-211 -729q-68 -231 -106.5 -331.5t-83.5 -145.5 q-76 -80 -195 -80q-102 0 -208 59q-37 20 -44.5 33.5t1.5 22.5l40 82q4 10 15 10q6 0 35 -21q90 -59 159 -59q61 0 96 47t62 127l43 129h-74q-18 0 -26 18l-295 838h-82q-25 0 -25 25zM233 1358q0 20 23 24l82 15q2 0 7 1t7 1q18 0 23 -19l6 -30q12 -55 51 -82t88 -27 q117 0 139 109l7 30q4 23 39 17l79 -15q25 -6 25 -24q0 -2 -8 -35q-23 -82 -78 -129q-78 -66 -203 -66q-129 0 -203 66q-57 51 -77 129q-7 21 -7 35z" />
<glyph unicode="&#x45f;" horiz-adv-x="1089" d="M72 25v77q0 25 24 25h115v729h-115q-25 0 -24 25v77q0 25 24 25h246q25 0 25 -25v-831h356v729h-115q-25 0 -24 25v77q0 25 24 25h385q25 0 25 -25v-77q0 -25 -25 -25h-114v-729h114q25 0 25 -25v-77q0 -25 -25 -25h-375v-256q0 -25 -24 -25h-98q-25 0 -25 25v256h-375 q-24 0 -24 25z" />
<glyph unicode="&#x490;" horiz-adv-x="948" d="M80 25v84q0 25 24 24h129v1137h-129q-25 0 -24 24v84q0 25 24 25h660v231q0 25 24 25h91q25 0 24 -25v-350q0 -25 -24 -24h-478v-1127h164q25 0 25 -24v-84q0 -25 -25 -25h-461q-24 0 -24 25z" />
<glyph unicode="&#x491;" horiz-adv-x="829" d="M72 25v77q0 25 24 25h115v729h-115q-25 0 -24 25v77q0 25 24 25h516v277q0 25 25 24h106q25 0 25 -24v-377v-4v-12q0 -3 -7 -7t-22 -4h-372v-729h145q25 0 25 -25v-77q0 -25 -25 -25h-416q-24 0 -24 25z" />
<glyph unicode="&#x4ae;" horiz-adv-x="1107" d="M10 1294v84q0 25 25 25h393q25 0 25 -25v-84q0 -25 -25 -24h-121l203 -414q6 -14 22 -43q4 -8 11.5 -23.5t11.5 -23.5l4 -8l4 -8l47 106l195 414h-125q-25 0 -25 24v84q0 25 25 25h393q25 0 25 -25v-84q0 -25 -25 -24h-86l-348 -674v-463h143q25 0 25 -24v-84 q0 -25 -25 -25h-454q-25 0 -25 25v84q0 25 25 24h143v459l-360 678h-76q-25 -1 -25 24z" />
<glyph unicode="&#x4c0;" horiz-adv-x="681" d="M47 25v84q0 25 25 24h186v1137h-186q-25 0 -25 24v84q0 25 25 25h540q25 0 25 -25v-84q0 -25 -25 -24h-186v-1137h186q25 0 25 -24v-84q0 -25 -25 -25h-540q-25 0 -25 25z" />
<glyph unicode="&#x2000;" horiz-adv-x="937" />
<glyph unicode="&#x2001;" horiz-adv-x="1878" />
<glyph unicode="&#x2002;" horiz-adv-x="937" />
<glyph unicode="&#x2003;" horiz-adv-x="1878" />
<glyph unicode="&#x2004;" horiz-adv-x="624" />
<glyph unicode="&#x2005;" horiz-adv-x="468" />
<glyph unicode="&#x2006;" horiz-adv-x="311" />
<glyph unicode="&#x2007;" horiz-adv-x="311" />
<glyph unicode="&#x2008;" horiz-adv-x="233" />
<glyph unicode="&#x2009;" horiz-adv-x="374" />
<glyph unicode="&#x200a;" horiz-adv-x="102" />
<glyph unicode="&#x2010;" horiz-adv-x="720" d="M104 471v104q0 25 25 25h463q25 0 24 -25v-104q0 -25 -24 -25h-463q-25 0 -25 25z" />
<glyph unicode="&#x2011;" horiz-adv-x="720" d="M104 471v104q0 25 25 25h463q25 0 24 -25v-104q0 -25 -24 -25h-463q-25 0 -25 25z" />
<glyph unicode="&#x2012;" horiz-adv-x="720" d="M104 471v104q0 25 25 25h463q25 0 24 -25v-104q0 -25 -24 -25h-463q-25 0 -25 25z" />
<glyph unicode="&#x2013;" horiz-adv-x="1138" d="M102 479v86q0 27 25 27h883q25 0 24 -27v-86q0 -25 -24 -24h-883q-25 -1 -25 24z" />
<glyph unicode="&#x2014;" horiz-adv-x="2048" d="M102 479v88q0 25 25 25h1792q25 0 25 -25v-88q0 -25 -25 -24h-1792q-25 -1 -25 24z" />
<glyph unicode="&#x2018;" horiz-adv-x="378" d="M10 997q0 4 8 21l236 432q8 14 12 16q2 2 8 2q4 0 17 -4l53 -18q14 -4 14 -14q0 -6 -4 -19l-121 -407q-8 -23 -30 -23h-170q-23 0 -23 14z" />
<glyph unicode="&#x2019;" horiz-adv-x="378" d="M20 1020q0 6 5 18l120 408q8 23 31 22h170q23 0 23 -14q0 -4 -9 -20l-235 -433q-8 -14 -12 -16q-2 -2 -9 -2q-4 0 -16 4l-53 19q-15 4 -15 14z" />
<glyph unicode="&#x201a;" horiz-adv-x="378" d="M-6 -215q0 6 4 18l121 408q8 23 31 22h169q23 0 23 -14q0 -4 -8 -20l-236 -432q-8 -14 -12 -17q-2 -2 -8 -2q-4 0 -17 4l-53 19q-14 4 -14 14z" />
<glyph unicode="&#x201c;" horiz-adv-x="833" d="M86 997q0 4 8 21l236 432q8 14 12 16q2 2 8 2q4 0 17 -4l53 -18q14 -4 14 -14q0 -6 -4 -19l-121 -407q-8 -23 -30 -23h-170q-23 0 -23 14zM446 997q0 4 9 21l235 432q8 14 12 16q2 2 9 2q4 0 16 -4l53 -18q14 -4 15 -14q0 -6 -4 -19l-121 -407q-8 -23 -31 -23h-170 q-23 0 -23 14z" />
<glyph unicode="&#x201d;" horiz-adv-x="843" d="M119 1020q0 6 4 18l121 408q8 23 30 22h170q23 0 23 -14q0 -4 -8 -20l-236 -433q-8 -14 -12 -16q-2 -2 -8 -2q-4 0 -17 4l-53 19q-14 4 -14 14zM479 1020q0 6 4 18l121 408q8 23 31 22h170q23 0 22 -14q0 -4 -8 -20l-235 -433q-8 -14 -13 -16q-2 -2 -8 -2q-4 0 -16 4 l-53 19q-15 4 -15 14z" />
<glyph unicode="&#x201e;" horiz-adv-x="833" d="M72 -215q0 6 4 18l121 408q8 23 30 22h170q23 0 23 -14q0 -4 -8 -20l-236 -432q-8 -14 -12 -17q-2 -2 -8 -2q-4 0 -17 4l-53 19q-14 4 -14 14zM432 -215q0 6 4 18l121 408q8 23 31 22h170q23 0 22 -14q0 -4 -8 -20l-235 -432q-8 -14 -13 -17q-2 -2 -8 -2q-4 0 -16 4 l-54 19q-14 4 -14 14z" />
<glyph unicode="&#x2026;" horiz-adv-x="2048" d="M209 137.5q0 59.5 40 98t97 38.5t97 -38.5t40 -98t-38.5 -98.5t-98.5 -39q-57 0 -97 39t-40 98.5zM887 137.5q0 59.5 40 98t97 38.5t97 -38.5t40 -98t-40 -98.5t-97 -39t-97 39t-40 98.5zM1565 137.5q0 59.5 40 98t97 38.5t97 -38.5t40 -98t-39 -98.5t-98 -39 q-57 0 -97 39t-40 98.5z" />
<glyph unicode="&#x202f;" horiz-adv-x="374" />
<glyph unicode="&#x2039;" horiz-adv-x="604" d="M45 489.5q0 10.5 10 20.5l344 432q16 16 23 16q2 0 10 -4l68 -39q12 -6 12 -16q0 -2 -6 -14l-266 -396l266 -395q6 -12 6 -14q0 -10 -12 -17l-68 -38l-10 -5q-6 0 -23 17l-344 432q-10 10 -10 20.5z" />
<glyph unicode="&#x203a;" horiz-adv-x="602" d="M88 80q0 2 6 14l266 395l-266 396q-6 12 -6 14q0 10 12 16l68 39q8 4 10 4q6 0 23 -16l344 -432q10 -10 10 -20.5t-10 -20.5l-344 -432q-16 -16 -23 -17q-2 0 -10 5l-68 38q-12 7 -12 17z" />
<glyph unicode="&#x205f;" horiz-adv-x="468" />
<glyph unicode="&#x2122;" horiz-adv-x="1294" d="M20 1235v55q0 27 27 27h479q25 0 17 -25l-19 -63q-6 -20 -32 -21h-156v-661q0 -12 -5 -19.5t-9 -7.5h-13h-65q-27 0 -27 27v661h-170q-27 0 -27 27zM629 547l37 743q0 14 5 20.5t8 6.5h13h78q6 0 11 -3t7.5 -6t4.5 -8.5t2 -7.5l147 -399h6l142 397q10 27 26 27h80 q8 0 14.5 -1t8.5 -4t3 -5t1 -9v-8l51 -743q2 -27 -27 -27h-73h-8q-1 0 -7 1t-7 4t-3 8.5t-2 13.5l-19 547h-6l-133 -373q-8 -20 -18 -21h-53q-12 0 -21 23l-135 371h-6l-8 -547q0 -12 -5.5 -19.5t-8.5 -7.5h-13h-66q-28 0 -26 27z" />
<glyph unicode="&#xe000;" horiz-adv-x="985" d="M0 985h985v-985h-985v985z" />
</font>
</defs>
</svg>
